<svg width="100" height="100" viewBox="0 0 100 100" fill="none" xmlns="http://www.w3.org/2000/svg">
<path d="M34.0741 30.5122C35.2937 27.1716 38.6938 21.0101 41.0314 14.6327C45.9101 17.872 46.8718 18.279 56.9339 19.595C62.5795 20.3334 64.8174 26.8679 64.8852 30.5122M34.0741 30.5122C29.8053 29.7023 29.173 39.4444 35.068 39.4444C37.1183 44.3794 39.472 48.1862 42.0253 50.3615M34.0741 30.5122C29.8731 23.9997 25.0946 9.02077 41.0314 5.70044C52.3132 -3.91638 76.5735 5.50845 64.8852 30.5122M64.8852 30.5122C69.7638 28.8925 71.0851 38.837 64.8852 39.4444C63.9498 43.437 61.2904 47.7516 57.9278 50.3615M42.0253 50.3615C47.6293 55.1359 53.2095 54.0237 57.9278 50.3615M42.0253 50.3615C42.4942 52.7538 42.2509 56.2123 39.0436 59.2937M57.9278 50.3615C57.5312 54.2748 58.1431 57.3556 59.9156 59.2937M29.1046 64.2561C27.2836 64.6314 25.4624 65.1405 23.1411 65.2485C8.40365 68.2854 11.2143 87.4721 11.2143 98H45.0071M29.1046 64.2561L45.0071 98M29.1046 64.2561C33.6683 63.3155 37.029 61.2293 39.0436 59.2937M29.1046 64.2561C27.6139 66.0551 23.3401 71.0844 25.1289 77.1582M45.0071 98H54.9461M45.0071 98L41.0314 71.2034M39.0436 59.2937L41.0314 71.2034M54.9461 98H88.7389C89.5859 88.0795 88.9549 65.2485 77.8059 65.2485C67.3372 65.2485 62.9027 62.5598 59.9156 59.2937M54.9461 98L68.8608 64.2561C70.8258 65.8293 74.3 70.4086 72.8364 77.1582M54.9461 98L57.9278 71.2034M59.9156 59.2937L57.9278 71.2034M41.0314 71.2034C45.0517 72.3506 52.8401 73.9568 57.9278 71.2034M30 89L33.0802 89.0678C33.3851 72.6686 14.5693 75.5646 20.1594 91.0527L23.1411 90.0602M72.8364 77.1582C70.5 77.1582 68.2778 78.3185 68 81.5C67.6907 85.043 70 86.5 72.5 86.5C73.6585 86.5 77.039 86.1884 77.5 82.5C77.961 78.8116 75.5 77.1582 72.8364 77.1582Z" stroke="#185D82" stroke-width="3" stroke-linecap="round" stroke-linejoin="round"/>
</svg>
