<svg width="100" height="100" viewBox="0 0 100 100" fill="none" xmlns="http://www.w3.org/2000/svg">
<path d="M64.3438 47C65.0177 45.1234 67.0104 41.5826 68.3021 38C70.9978 39.8197 72.638 40.2607 78.1979 41C81.3174 41.4148 82.1188 44.9528 82.1562 47M64.3438 47C61.985 46.5451 62.076 52 65.3333 52C66.4662 54.7723 67.8808 56.778 69.2917 58M64.3438 47C62.0224 43.3416 59.4961 35.8652 68.3021 34C74.5359 28.5977 88.6147 32.954 82.1562 47M82.1562 47C84.852 46.0901 85.582 51.6588 82.1562 52C81.6394 54.2429 80.0559 56.5338 78.1979 58M69.2917 58C72.3882 60.682 75.5908 60.0573 78.1979 58M69.2917 58C69.5507 59.3439 69.0847 61.269 67.3125 63M52.4688 89L46.5312 93L43.5625 89M52.4688 89L55.4375 85M52.4688 89H59.3958M95.0208 89C95.4888 83.4271 95.2438 66 89.0833 66C83.2988 66 80.838 64.8347 79.1875 63M95.0208 89H88.0938M95.0208 89H97M78.1979 58C77.9788 60.1983 78.2081 61.9113 79.1875 63M61.375 66C60.3688 66.2108 59.6889 65.9393 58.4062 66C52.1951 67.3012 52.3688 76.4139 52.4688 82M61.375 66L71.2708 89M61.375 66C63.8967 65.4716 66.1993 64.0873 67.3125 63M61.375 66C60.5513 67.0106 58.4074 69.588 59.3958 73M71.2708 89H76.2188M71.2708 89L68.3021 70M71.2708 89H63.3542H59.3958M67.3125 63L68.3021 70M76.2188 89L84.1354 66C85.2212 66.8838 87.9129 71.2084 87.1042 75M76.2188 89L78.1979 70M76.2188 89H88.0938M79.1875 63L78.1979 70M68.3021 70C70.5235 70.6445 75.3867 71.5468 78.1979 70M64.3438 81L65.3333 80C64.946 78.2872 64.1518 77.6989 63.3542 77M60.3854 83C60.0433 83.1553 59.8564 83.8634 59.3958 84C59.2769 83.7906 58.5036 83.2047 58.4062 83M87.1042 75C85.9248 74.7117 84.238 75.8058 84.1354 77C83.9645 78.9903 85.356 79.7905 86.1146 80C86.7323 80.1706 88.9129 79.9557 89.0833 78C89.2518 76.0665 88.1151 75.2471 87.1042 75ZM17.8333 52C18.4781 55.7275 18.8229 56.5552 18.8229 57M17.8333 52C15.8542 51.5 15.7378 57 18.8229 57M17.8333 52C17.2841 48.8248 13.8428 40.0603 21.7917 39C27.3731 35.0048 40.3431 38.1013 35.6458 52M18.8229 57C19.8959 59.6209 21.445 61.8447 22.7812 63M35.6458 52C37.625 51.5 37.9009 56.6774 34.6562 57M35.6458 52C35.5537 53.2126 35.5054 54.8336 34.6562 57M34.6562 57C34.1667 59.1204 33.4473 61.6139 31.6875 63M22.7812 63C27.3005 63.5417 27.693 63.3022 31.6875 63M22.7812 63C22.9834 64.0466 22.7881 65.5798 21.7917 67M31.6875 63C31.5136 64.7407 31.0608 66.0259 31.6875 67M21.7917 67C15.8542 70 14.3698 69.3636 12.8854 70C9.6183 71.4006 7.76717 73.9174 6.94792 77.8098M21.7917 67C23.849 67.5597 28.3616 68.3432 31.6875 67M31.6875 67C31.809 67.1889 33.516 67.8328 33.6667 68C38.1198 70 40.099 70 41.0885 70.5C43.6894 71.8141 44.5461 78.1667 47.5208 84C50.4896 83.5 51.3928 82.6302 52.4688 82M35.6458 96H40.5938V89M55.4375 85L54.4479 80M55.4375 85C55.6339 84.8668 57.0171 83.9881 58.4062 83M40.5938 94H97M55.4375 10H64.3438M68.3021 10H75.2292M79.1875 10H87.1042M55.4375 17H71.2708M75.2292 17H87.1042M5.95833 15H14.8646M21.7917 15H37.625M5.95833 23H19.8125M28.7188 23H37.625M52.4688 82C53.2108 81.5654 53.5811 80.7448 54.4479 80M54.4479 80C54.8487 79.6556 54.256 76.8448 55.4375 76L57 77.5C57.6573 76.1065 58.5322 74.9722 59.3958 74C59.951 73.375 63.4501 72.0196 63.3542 77M63.3542 77C62.5435 79.5503 60.8519 80.7453 59.3958 82M43.5625 89L40.5938 83V89M43.5625 89H40.5938M88.0938 83V89M59.3958 89V82M59.3958 82C59.0338 82.3119 58.7514 82.7545 58.4062 83M56.4271 25C53.2473 25 50.4896 22.2217 50.4896 19V9C50.4896 5.77834 53.2473 4 56.4271 4H86.1146C89.2944 4 92.0521 5.77834 92.0521 9V19C92.0521 22.2217 89.2944 25 86.1146 25H65.3333V31L56.4271 25ZM6.94792 30C3.7681 30 2 27.2217 2 24V15C2 11.7783 3.7681 9 6.94792 9H37.625C40.8048 9 42.5729 11.7783 42.5729 15V24C42.5729 27.2217 40.8048 30 37.625 30H14.8646V37L6.94792 30ZM36.6354 96V83C36.6354 78.7045 32.9585 75 28.7188 75H12.8854C8.64565 75 4.96875 78.7045 4.96875 83V96H36.6354Z" stroke="#185D82" stroke-width="3" stroke-linecap="round" stroke-linejoin="round"/>
</svg>
