<svg width="100" height="100" viewBox="0 0 100 100" fill="none" xmlns="http://www.w3.org/2000/svg">
<path d="M33.8039 88.678V42.9284M62.0027 69.0135H94.013C95.6629 69.0135 97 70.3509 97 72.0005V76.7705M97 76.7705H33.8039V69.0135H55.3823M97 76.7705V88.678M97 76.7705H68.6416L74.0987 88.678M67.3117 55.1963C62.5622 59.9458 54.8343 59.9458 50.085 55.1963M63.5281 51.4126C60.8607 54.08 56.536 54.08 53.8686 51.4126M33.8039 36.2809H27.0924M65.2874 16.4401H43.1138C43.1138 13.4355 45.5495 11 48.5539 11H59.8472C62.8518 11 65.2874 13.4357 65.2874 16.4401ZM46.8441 36.2809H70.5526V40.9781C70.5526 42.6245 69.218 43.959 67.5716 43.959H49.8251C48.1787 43.959 46.8441 42.6245 46.8441 40.9781V36.2809ZM21.8922 76.7705H13.9421C11.7999 76.7705 10.0635 75.034 10.0635 72.8919C10.0635 70.7498 11.7999 69.0133 13.9421 69.0133H21.8922C24.0343 69.0133 25.7707 70.7498 25.7707 72.8919C25.7707 75.034 24.0343 76.7705 21.8922 76.7705Z" stroke="#185D82" stroke-width="3.4" stroke-miterlimit="10" stroke-linecap="round" stroke-linejoin="round"/>
<path d="M3 88.6779V43.7383C3 39.8421 4.45066 36.0853 7.06942 33.2004L18.093 21.0565C19.5542 19.5927 21.2898 18.4315 23.2004 17.6393C25.111 16.8471 27.159 16.4395 29.2273 16.4397H65.6793C68.9229 16.4397 71.7959 18.5334 72.7889 21.622L76.4392 32.9758C76.9631 34.6099 75.745 36.2818 74.0296 36.2818H33.8044V88.6779" stroke="#185D82" stroke-width="3.4" stroke-miterlimit="10" stroke-linecap="round" stroke-linejoin="round"/>
</svg>
