<svg width="100" height="100" viewBox="0 0 100 100" fill="none" xmlns="http://www.w3.org/2000/svg">
<path d="M21.1932 32.315L20.9142 33.7888C21.6355 33.9253 22.3496 33.5198 22.6018 32.8304L21.1932 32.315ZM28.1756 19.3844L29.0041 18.1339C28.6216 17.8805 28.1442 17.8161 27.7083 17.959C27.2724 18.102 26.9258 18.4365 26.7676 18.8671L28.1756 19.3844ZM42.1405 23.363L42.3346 21.8756L42.1405 23.363ZM49.1229 32.315L47.6232 32.3429C47.6321 32.8196 47.867 33.2636 48.2561 33.5392C48.6452 33.8147 49.142 33.8888 49.5946 33.7389L49.1229 32.315ZM49.1229 41.2669L48.977 39.7741C48.3379 39.8365 47.8094 40.2989 47.6626 40.9241L49.1229 41.2669ZM22.1907 41.2669L23.5754 40.6903C23.3426 40.1312 22.7963 39.7669 22.1907 39.7669V41.2669ZM28.1756 12.4218L28.4809 13.8904C28.7269 13.8392 28.9561 13.7271 29.1474 13.5644L28.1756 12.4218ZM12.2157 63.1495L12.1462 61.6511C12.068 61.6547 11.9903 61.6645 11.9136 61.6802L12.2157 63.1495ZM2.24083 91H0.740826C0.740826 91.8284 1.4124 92.5 2.24083 92.5V91ZM69.0728 91V92.5C69.8516 92.5 70.5009 91.9039 70.5673 91.1279L69.0728 91ZM26.1806 58.1762L25.1426 57.0934L26.1806 58.1762ZM52.1154 62.1548L53.0516 60.9829C52.6834 60.6887 52.1983 60.5847 51.7418 60.7021C51.2854 60.8195 50.9106 61.1446 50.7299 61.5799L52.1154 62.1548ZM45.133 57.1815L46.2387 56.168V56.168L45.133 57.1815ZM27.1781 68.1228L25.6856 68.2725C25.6892 68.3087 25.6942 68.3447 25.7004 68.3805L27.1781 68.1228ZM12.7721 73.5207C13.0066 74.3153 13.8408 74.7693 14.6354 74.5347C15.4299 74.3002 15.8839 73.466 15.6494 72.6715L12.7721 73.5207ZM10.2208 85.032L8.8102 85.5423C8.95576 85.9447 9.26625 86.2657 9.66354 86.4247C10.0608 86.5836 10.5071 86.5654 10.8901 86.3744L10.2208 85.032ZM21.1932 83.0427V84.5427C22.0107 84.5427 22.6777 83.888 22.6929 83.0707L21.1932 83.0427ZM19.1982 81.5427C18.3698 81.5427 17.6982 82.2143 17.6982 83.0427C17.6982 83.8711 18.3698 84.5427 19.1982 84.5427V81.5427ZM12.885 85.3798C13.6264 85.0101 13.9278 84.1095 13.5581 83.3681C13.1885 82.6267 12.2878 82.3253 11.5464 82.695L12.885 85.3798ZM56.1054 73.0961L55.7554 74.5547H55.7554L56.1054 73.0961ZM51.5 76.5L52.9943 76.6308L51.5 76.5ZM55.01 80.984L54.998 82.4839L55.01 80.984ZM59.5 77.5L58.0059 77.3673L59.5 77.5ZM58.1003 10.4324V8.93243C57.2719 8.93243 56.6003 9.60401 56.6003 10.4324H58.1003ZM98 10.4324H99.5C99.5 9.60401 98.8284 8.93243 98 8.93243V10.4324ZM98 57.1815V58.6815C98.8284 58.6815 99.5 58.0099 99.5 57.1815H98ZM58.1003 57.1815H56.6003C56.6003 58.0099 57.2719 58.6815 58.1003 58.6815V57.1815ZM63.278 16.4789C62.772 15.8229 61.8301 15.7014 61.1741 16.2074C60.5182 16.7134 60.3966 17.6553 60.9026 18.3113L63.278 16.4789ZM72.0652 30.3257L73.3108 29.4899L73.2832 29.4487L73.2529 29.4095L72.0652 30.3257ZM72.0652 38.2829L73.5446 38.5311L72.0652 38.2829ZM72.6687 51.7737C72.9781 52.5422 73.8518 52.9144 74.6203 52.605C75.3888 52.2957 75.7611 51.4219 75.4517 50.6534L72.6687 51.7737ZM68.1497 16.3458C67.5703 15.7538 66.6206 15.7436 66.0285 16.3231C65.4365 16.9026 65.4263 17.8522 66.0058 18.4443L68.1497 16.3458ZM75.5 26L76.6117 27.007L77.56 25.9602L76.572 24.9508L75.5 26ZM80.0452 24.3577L78.9879 25.4218L79.2628 25.6949L79.6355 25.8007L80.0452 24.3577ZM75.2516 16.4837C74.7483 15.8257 73.8069 15.7003 73.1489 16.2037C72.4909 16.707 72.3655 17.6484 72.8688 18.3064L75.2516 16.4837ZM79.5 29L80.015 27.5912C79.2985 27.3292 78.4995 27.6468 78.1584 28.3292L79.5 29ZM76.5546 51.0982C76.4909 51.9241 77.1088 52.6454 77.9348 52.7091C78.7608 52.7728 79.482 52.1549 79.5457 51.3289L76.5546 51.0982ZM79.0477 38.2829L80.5432 38.3983C80.5976 37.694 80.1531 37.0472 79.4761 36.8454L79.0477 38.2829ZM82.0401 34.3043L81.0118 35.3964C81.3062 35.6735 81.6999 35.8201 82.1039 35.8029C82.5078 35.7858 82.8877 35.6063 83.1574 35.3051L82.0401 34.3043ZM83.5 38.5L82.7283 37.2138C82.3144 37.4621 82.0453 37.8944 82.0052 38.3754L83.5 38.5ZM80.5739 50.8973C80.3992 51.7071 80.9141 52.5052 81.7239 52.6798C82.5337 52.8545 83.3318 52.3396 83.5064 51.5298L80.5739 50.8973ZM89.0226 37.2883L87.5499 37.0032L89.0226 37.2883ZM84.5418 51.0263C84.4384 51.8483 85.0209 52.5984 85.8429 52.7018C86.6648 52.8052 87.415 52.2227 87.5184 51.4008L84.5418 51.0263ZM81.3045 16.5802C80.8545 15.8847 79.9258 15.6857 79.2303 16.1357C78.5348 16.5857 78.3358 17.5144 78.7858 18.2099L81.3045 16.5802ZM86.0301 25.3524L84.7817 26.1839L84.8656 26.3098L84.9729 26.4164L86.0301 25.3524ZM87.0276 27.3417L85.6791 27.9985L85.6964 28.0342L85.7156 28.0688L87.0276 27.3417ZM86.3583 28.9833C85.6169 29.3529 85.3156 30.2536 85.6852 30.995C86.0548 31.7363 86.9555 32.0377 87.6969 31.6681L86.3583 28.9833ZM93.6818 28.6841C94.4232 28.3144 94.7246 27.4138 94.3549 26.6724C93.9853 25.931 93.0846 25.6296 92.3432 25.9993L93.6818 28.6841ZM90.0201 30.815C89.1916 30.815 88.5201 31.4866 88.5201 32.315C88.5201 33.1434 89.1916 33.815 90.0201 33.815V30.815ZM93.0125 33.815C93.841 33.815 94.5125 33.1434 94.5125 32.315C94.5125 31.4866 93.841 30.815 93.0125 30.815V33.815ZM84.971 26.2795C84.3843 26.8645 84.383 27.8142 84.9679 28.4008C85.5529 28.9874 86.5026 28.9888 87.0893 28.4038L84.971 26.2795ZM92.0767 23.4305C92.6633 22.8456 92.6647 21.8958 92.0797 21.3092C91.4948 20.7226 90.545 20.7212 89.9584 21.3062L92.0767 23.4305ZM22.6018 32.8304C22.8137 32.2513 23.1953 31.5259 23.7331 30.6217C24.27 29.7192 24.8987 28.742 25.5973 27.6195C26.9676 25.4178 28.5219 22.7917 29.5836 19.9016L26.7676 18.8671C25.819 21.4494 24.4064 23.8554 23.0503 26.0343C22.3858 27.102 21.7114 28.1523 21.1548 29.088C20.5992 30.0219 20.097 30.9454 19.7845 31.7995L22.6018 32.8304ZM27.3471 20.6348C29.5037 22.0636 30.9873 22.8749 33.0975 23.4413C35.1051 23.9803 37.6792 24.2936 41.9464 24.8504L42.3346 21.8756C37.9485 21.3033 35.6379 21.0171 33.8753 20.5439C32.2152 20.0983 31.043 19.4848 29.0041 18.1339L27.3471 20.6348ZM41.9464 24.8504C43.8256 25.0957 45.2079 26.2137 46.1671 27.7125C47.1433 29.2378 47.599 31.0453 47.6232 32.3429L50.6227 32.287C50.5886 30.4576 49.9807 28.1059 48.6939 26.0954C47.3903 24.0583 45.3105 22.264 42.3346 21.8756L41.9464 24.8504ZM49.5946 33.7389C49.8459 33.6557 49.9944 33.6773 50.0846 33.7064C50.187 33.7396 50.329 33.8214 50.492 34.0163C50.8404 34.433 51.1404 35.2056 51.1984 36.165C51.2556 37.1099 51.064 38.0282 50.6728 38.6866C50.3103 39.2967 49.7817 39.6954 48.977 39.7741L49.2689 42.7598C51.1301 42.5779 52.4589 41.5535 53.2518 40.2191C54.016 38.933 54.2778 37.3853 54.193 35.9837C54.109 34.5965 53.6715 33.142 52.7934 32.0919C52.3432 31.5534 51.7498 31.092 51.0078 30.852C50.2536 30.6081 49.4489 30.6269 48.6512 30.8911L49.5946 33.7389ZM22.1907 39.7669C21.4795 39.7669 20.9897 39.4612 20.6135 38.9173C20.2015 38.3216 19.9441 37.4401 19.9134 36.4823C19.8824 35.5165 20.088 34.6777 20.3802 34.1812C20.6446 33.7318 20.8087 33.7688 20.9142 33.7888L21.4721 30.8412C19.7421 30.5137 18.4794 31.496 17.7945 32.6599C17.1374 33.7767 16.8713 35.2194 16.9149 36.5784C16.9588 37.9455 17.3222 39.4323 18.1461 40.6237C19.0058 41.8668 20.367 42.7669 22.1907 42.7669V39.7669ZM22.4528 31.5006C20.7451 28.8591 19.2549 24.9563 19.6787 21.5251C19.885 19.8554 20.5401 18.3076 21.8493 17.0127C23.171 15.7055 25.257 14.5606 28.4809 13.8904L27.8703 10.9532C24.2415 11.7075 21.5767 13.063 19.7398 14.8797C17.8904 16.7087 16.9791 18.9083 16.7013 21.1573C16.1571 25.5634 18.0284 30.1826 19.9335 33.1294L22.4528 31.5006ZM29.1474 13.5644C33.4809 9.8786 40.5114 9.51067 45.2581 12.4977C47.5804 13.959 49.3414 16.2143 49.9866 19.3016C50.6367 22.4124 50.1827 26.5173 47.7646 31.6786L50.4812 32.9514C53.0891 27.385 53.7424 22.6079 52.9232 18.6879C52.0991 14.7445 49.8142 11.8201 46.8559 9.95856C41.0416 6.29975 32.5725 6.71287 27.2038 11.2791L29.1474 13.5644ZM29.1471 49.076C27.1814 47.405 25.2764 44.7756 23.5754 40.6903L20.8059 41.8435C22.6314 46.2276 24.7781 49.2995 27.2041 51.3618L29.1471 49.076ZM11.9136 61.6802C8.40067 62.4025 5.86954 64.0978 4.11277 66.4268C2.38367 68.7192 1.47207 71.5342 0.995559 74.4199C0.518328 77.31 0.461828 80.373 0.517403 83.2328C0.574825 86.1877 0.740826 88.728 0.740826 91H3.74083C3.74083 88.7551 3.56944 85.8813 3.51684 83.1745C3.46239 80.3727 3.52323 77.5263 3.95548 74.9087C4.38844 72.2867 5.17844 69.9958 6.50782 68.2334C7.80955 66.5077 9.69379 65.1994 12.5178 64.6187L11.9136 61.6802ZM70.5673 91.1279C70.9369 86.8085 71.0998 79.6906 69.9256 73.5986C69.3404 70.5624 68.3984 67.644 66.8785 65.4499C65.3217 63.2026 63.0978 61.6495 60.0953 61.6495V64.6495C61.8869 64.6495 63.2731 65.5136 64.4124 67.1582C65.5884 68.8559 66.4281 71.3041 66.9798 74.1664C68.0794 79.8715 67.937 86.6788 67.5782 90.8721L70.5673 91.1279ZM47.6626 40.9241C46.9478 43.9688 44.8797 46.9728 42.2195 49.033L44.0564 51.4048C47.1799 48.9859 49.6893 45.4171 50.5832 41.6098L47.6626 40.9241ZM42.2195 49.033C38.5784 51.8529 33.298 52.6046 29.1471 49.076L27.2041 51.3618C32.6919 56.0268 39.5822 54.8699 44.0564 51.4048L42.2195 49.033ZM16.901 60.6856C16.0941 60.8515 15.2025 61.1122 14.5131 61.2814C13.7629 61.4656 13.0111 61.6109 12.1462 61.6511L12.2853 64.6479C13.4166 64.5953 14.3755 64.4043 15.2285 64.1949C16.1423 63.9705 16.7463 63.7802 17.5053 63.6241L16.901 60.6856ZM2.24083 92.5H31.1681V89.5H2.24083V92.5ZM15.8531 62.8084L29.818 91.6536L32.5182 90.3464L18.5533 61.5012L15.8531 62.8084ZM26.7037 50.508C27.0896 52.4724 27.3065 55.0189 25.1426 57.0934L27.2187 59.259C30.5711 56.0451 30.068 52.0709 29.6475 49.9298L26.7037 50.508ZM25.1426 57.0934C23.6992 58.4771 20.6932 59.9057 16.901 60.6856L17.5053 63.6241C21.5627 62.7897 25.197 61.197 27.2187 59.259L25.1426 57.0934ZM31.1681 92.5H40.1455V89.5H31.1681V92.5ZM40.1455 92.5H69.0728V89.5H40.1455V92.5ZM50.7299 61.5799L38.7601 90.4251L41.5309 91.5749L53.5008 62.7297L50.7299 61.5799ZM60.0953 61.6495C55.7735 61.6495 52.914 60.8909 50.8697 59.8736C48.8255 58.8563 47.4854 57.5281 46.2387 56.168L44.0272 58.1951C45.3494 59.6375 46.989 61.2933 49.5331 62.5594C52.077 63.8254 55.4142 64.6495 60.0953 64.6495V61.6495ZM46.2387 56.168C45.5908 55.4611 45.1379 54.7459 44.8665 53.8848C44.5919 53.0135 44.4747 51.9022 44.6303 50.3705L41.6457 50.0673C41.4602 51.8934 41.5783 53.4319 42.0053 54.7867C42.4356 56.1517 43.1507 57.2389 44.0272 58.1951L46.2387 56.168ZM32.6458 90.7423L28.6558 67.8651L25.7004 68.3805L29.6904 91.2577L32.6458 90.7423ZM28.6706 67.9731L27.6731 58.0265L24.6881 58.3259L25.6856 68.2725L28.6706 67.9731ZM41.6328 91.1945L44.6253 68.3173L41.6506 67.9282L38.6582 90.8055L41.6328 91.1945ZM44.6136 68.3919L46.6086 57.4506L43.6573 56.9124L41.6623 67.8537L44.6136 68.3919ZM26.7673 69.5654C28.5897 70.0843 31.595 70.6962 34.7281 70.8755C37.804 71.0515 41.2819 70.8298 43.8507 69.4426L42.4253 66.8029C40.6186 67.7785 37.8453 68.049 34.8995 67.8804C32.0108 67.7151 29.224 67.1457 27.5889 66.6801L26.7673 69.5654ZM16.0492 61.1965C14.7669 62.7407 10.9933 67.4944 12.7721 73.5207L15.6494 72.6715C14.3514 68.2742 17.0756 64.6564 18.3572 63.1131L16.0492 61.1965ZM11.6313 84.5218C10.5231 81.4581 10.6862 79.2013 11.3212 77.7299C11.953 76.266 13.0912 75.4603 14.2628 75.2539C15.4331 75.0476 16.754 75.4177 17.8099 76.5642C18.8733 77.7188 19.7539 79.7711 19.6934 83.0148L22.6929 83.0707C22.7636 79.2784 21.7373 76.4001 20.0167 74.5319C18.2887 72.6556 15.9488 71.9105 13.7422 72.2994C11.537 72.688 9.58254 74.1875 8.56673 76.5412C7.55413 78.8875 7.51474 81.9609 8.8102 85.5423L11.6313 84.5218ZM21.1932 81.5427H19.1982V84.5427H21.1932V81.5427ZM10.8901 86.3744L12.885 85.3798L11.5464 82.695L9.55146 83.6896L10.8901 86.3744ZM51.1792 63.3268C52.6912 64.5347 55.7184 67.8132 54.6396 72.7776L57.5711 73.4146C59.0096 66.7955 54.9193 62.4749 53.0516 60.9829L51.1792 63.3268ZM56.4553 71.6375C55.075 71.3064 53.5561 71.6566 52.3671 72.4455C51.1477 73.2546 50.1604 74.6019 50.0057 76.3692L52.9943 76.6308C53.0584 75.8981 53.456 75.3233 54.0257 74.9453C54.6257 74.5472 55.3002 74.4455 55.7554 74.5547L56.4553 71.6375ZM50.0057 76.3692C49.6544 80.3845 52.7197 82.4656 54.998 82.4839L55.0221 79.484C54.2802 79.4781 52.8136 78.6959 52.9943 76.6308L50.0057 76.3692ZM54.998 82.4839C56.0801 82.4926 57.4714 82.3689 58.6681 81.6577C59.9713 80.8832 60.8241 79.5477 60.9941 77.6327L58.0059 77.3673C57.9107 78.4397 57.5134 78.8542 57.1354 79.0788C56.651 79.3667 55.9299 79.4913 55.0221 79.484L54.998 82.4839ZM60.9941 77.6327C61.1623 75.7383 60.5675 74.2871 59.5516 73.2713C58.5933 72.3132 57.3788 71.859 56.4553 71.6375L55.7554 74.5547C56.4053 74.7106 57.0192 74.9817 57.4305 75.3929C57.784 75.7463 58.0999 76.3083 58.0059 77.3673L60.9941 77.6327ZM58.1003 11.9324H98V8.93243H58.1003V11.9324ZM96.5 10.4324V57.1815H99.5V10.4324H96.5ZM98 55.6815H58.1003V58.6815H98V55.6815ZM59.6003 57.1815V10.4324H56.6003V57.1815H59.6003ZM60.9026 18.3113L70.8775 31.2419L73.2529 29.4095L63.278 16.4789L60.9026 18.3113ZM70.8196 31.1614C71.0654 31.5277 71.1644 31.7022 71.224 31.8616C71.2739 31.9949 71.321 32.1868 71.3223 32.5765C71.3254 33.4579 71.108 34.9224 70.5859 38.0348L73.5446 38.5311C74.0464 35.5393 74.3265 33.7666 74.3223 32.5661C74.32 31.9148 74.2373 31.3546 74.0339 30.8107C73.8403 30.2929 73.5625 29.865 73.3108 29.4899L70.8196 31.1614ZM70.5859 38.0348C70.2505 40.0343 70.6352 43.0861 71.1177 45.6673C71.6072 48.2856 72.2704 50.784 72.6687 51.7737L75.4517 50.6534C75.1676 49.9475 74.5471 47.6863 74.0667 45.116C73.5792 42.5086 73.3077 39.9429 73.5446 38.5311L70.5859 38.0348ZM66.0058 18.4443L74.428 27.0492L76.572 24.9508L68.1497 16.3458L66.0058 18.4443ZM81.1024 23.2936C80.4701 22.6654 77.374 19.2584 75.2516 16.4837L72.8688 18.3064C75.0697 21.1837 78.2549 24.6935 78.9879 25.4218L81.1024 23.2936ZM74.3883 24.993C73.4023 26.0815 72.9289 27.3253 73.139 28.5709C73.3434 29.7824 74.1422 30.6723 75.0272 31.1909C75.9099 31.7081 77.0125 31.943 78.0779 31.7497C79.1869 31.5485 80.2374 30.8793 80.8416 29.6708L78.1584 28.3292C78.0126 28.6207 77.8041 28.7504 77.5425 28.7978C77.2373 28.8532 76.8577 28.7864 76.5439 28.6025C76.2324 28.42 76.1204 28.2094 76.0972 28.0717C76.0797 27.9681 76.0618 27.6141 76.6117 27.007L74.3883 24.993ZM78.985 30.4088C81.4386 31.3058 83.8437 30.2596 84.3821 28.038C84.9256 25.7956 83.2798 23.7166 80.4548 22.9147L79.6355 25.8007C80.6012 26.0748 81.0778 26.467 81.2901 26.7473C81.4948 27.0177 81.4929 27.2226 81.4665 27.3313C81.4383 27.448 81.3546 27.5744 81.1721 27.6564C80.9934 27.7368 80.6194 27.8121 80.015 27.5912L78.985 30.4088ZM79.5457 51.3289L80.5432 38.3983L77.5521 38.1676L76.5546 51.0982L79.5457 51.3289ZM79.4761 36.8454C79.1786 36.7568 79.0304 36.5823 78.9547 36.3038C78.8639 35.9698 78.9068 35.5247 79.0913 35.1549C79.2733 34.7899 79.4892 34.6804 79.6199 34.6599C79.7393 34.6413 80.201 34.6328 81.0118 35.3964L83.0684 33.2122C81.8592 32.0736 80.5101 31.4843 79.1564 31.696C77.8139 31.9059 76.8943 32.8381 76.4066 33.8161C75.9212 34.7893 75.7603 35.9887 76.0597 37.0905C76.3741 38.2477 77.2102 39.3005 78.6192 39.7205L79.4761 36.8454ZM83.1574 35.3051C83.6919 34.7085 84.0826 34.6432 84.2109 34.644C84.3288 34.6447 84.4009 34.6915 84.4521 34.7812C84.5046 34.8733 84.5855 35.1213 84.4121 35.5391C84.2363 35.9626 83.7781 36.5838 82.7283 37.2138L84.2717 39.7862C87.1194 38.0776 88.2585 35.3996 87.058 33.2949C86.4891 32.2976 85.4438 31.6515 84.2292 31.644C83.0251 31.6367 81.8683 32.248 80.9228 33.3035L83.1574 35.3051ZM82.0052 38.3754C81.504 44.3902 80.8914 49.425 80.5739 50.8973L83.5064 51.5298C83.8715 49.837 84.496 44.6098 84.9948 38.6246L82.0052 38.3754ZM87.5499 37.0032C86.7005 41.3916 85.9846 44.6296 85.4671 46.8824C85.2057 48.0205 85.0009 48.8812 84.8443 49.5579C84.6993 50.1843 84.5822 50.7056 84.5418 51.0263L87.5184 51.4008C87.5349 51.2693 87.6069 50.9261 87.7671 50.2344C87.9155 49.5929 88.1318 48.6821 88.391 47.5541C88.9146 45.2746 89.6381 42.0021 90.4953 37.5733L87.5499 37.0032ZM78.7858 18.2099C79.6782 19.5891 80.6095 20.7122 81.5721 21.8947C82.5397 23.0833 83.5799 24.3796 84.7817 26.1839L87.2785 24.5208C85.9957 22.5948 84.8828 21.2097 83.8987 20.0008C82.9097 18.7859 82.0908 17.7954 81.3045 16.5802L78.7858 18.2099ZM84.9729 26.4164C84.8904 26.3344 84.837 26.2615 84.8231 26.2424C84.8011 26.2125 84.7854 26.1885 84.7777 26.1765C84.7621 26.1524 84.7525 26.1357 84.7518 26.1346C84.7493 26.1301 84.753 26.1364 84.7657 26.1601C84.7895 26.2048 84.8254 26.2741 84.8721 26.366C84.9643 26.5475 85.0843 26.7884 85.2049 27.0323C85.325 27.2752 85.4436 27.5169 85.5323 27.6981C85.5766 27.7886 85.6134 27.8639 85.639 27.9165C85.6519 27.9427 85.6619 27.9633 85.6687 27.9773C85.6721 27.9843 85.6748 27.9897 85.6765 27.9933C85.6774 27.995 85.678 27.9964 85.6784 27.9973C85.6787 27.9977 85.6788 27.998 85.6789 27.9983C85.679 27.9984 85.679 27.9984 85.679 27.9985C85.6791 27.9985 85.6791 27.9985 85.6791 27.9985C85.6791 27.9985 85.6791 27.9985 87.0276 27.3417C88.3761 26.6848 88.3761 26.6848 88.3761 26.6848C88.3761 26.6848 88.3761 26.6847 88.3761 26.6847C88.376 26.6846 88.376 26.6845 88.3759 26.6844C88.3758 26.6841 88.3756 26.6838 88.3754 26.6833C88.3749 26.6823 88.3742 26.6809 88.3733 26.679C88.3715 26.6752 88.3688 26.6697 88.3653 26.6625C88.3583 26.6482 88.348 26.6272 88.335 26.6004C88.3089 26.547 88.2716 26.4707 88.2267 26.379C88.137 26.1958 88.0166 25.9504 87.8942 25.7028C87.7723 25.4563 87.6464 25.2033 87.5464 25.0067C87.497 24.9094 87.4503 24.8187 87.412 24.747C87.3936 24.7126 87.3714 24.6718 87.349 24.6329C87.3384 24.6146 87.3203 24.5839 87.298 24.5492C87.2869 24.5321 87.2681 24.5036 87.2436 24.4702C87.2271 24.4476 87.1716 24.372 87.0873 24.2883L84.9729 26.4164ZM85.7156 28.0688C86.2704 29.0699 86.9727 29.4958 87.4209 29.7574C87.5277 29.8197 87.5824 29.8513 87.6333 29.8839C87.6777 29.9124 87.6864 29.9214 87.6797 29.9154C87.6696 29.9064 87.6479 29.8845 87.6262 29.8518C87.6162 29.8366 87.6086 29.8228 87.6032 29.8115C87.5979 29.8004 87.5959 29.7942 87.5961 29.7948L90.4491 28.8672C90.0956 27.7798 89.2593 27.3568 88.933 27.1663C88.6405 26.9956 88.501 26.9057 88.3396 26.6145L85.7156 28.0688ZM87.5961 29.7948C88.1928 31.6303 88.0319 34.5132 87.5499 37.0032L90.4953 37.5733C90.9994 34.9685 91.2908 31.4564 90.4491 28.8672L87.5961 29.7948ZM87.6969 31.6681L89.6919 30.6734L88.3533 27.9886L86.3583 28.9833L87.6969 31.6681ZM89.6919 30.6734L93.6818 28.6841L92.3432 25.9993L88.3533 27.9886L89.6919 30.6734ZM90.0201 33.815H93.0125V30.815H90.0201V33.815ZM87.0893 28.4038L92.0767 23.4305L89.9584 21.3062L84.971 26.2795L87.0893 28.4038Z" fill="#185D82"/>
</svg>
