<svg width="100" height="100" viewBox="0 0 100 100" fill="none" xmlns="http://www.w3.org/2000/svg">
<g clip-path="url(#clip0_804_37)">
<path d="M48.9469 23.0878C51.838 22.9528 53.5728 22.05 54.3728 21.55C60.4728 18.65 64.5729 17.45 69.3729 15.6238C73.3675 11.7728 73.3295 7.96162 72.7456 4.97192C79.7252 10.9386 87.5689 9.54867 93.4455 4.97192C92.9515 9.86237 93.8521 13.2017 96.0598 15.6238C99.7802 19.7055 104.899 23.0878 117.938 23.0878C131.823 23.0878 132.929 83.3522 131.874 95.7501H113.918M48.9469 23.0878H61.0729M48.9469 23.0878C35.3568 25.8978 31.4729 45.7501 37.8728 78.0501C35.7729 86.4501 37.3536 92.0897 37.8728 95.7501H49.9728C51.6728 92.8501 55.0728 83.5501 54.3728 77.2501C56.4528 71.4901 55.2395 57.6501 54.3728 51.4501M113.918 95.7501L113.918 60.8401M113.918 95.7501H60.073C58.873 92.7501 59.573 89.0501 58.873 84.1501C58.1712 79.2374 55.1396 60.4167 54.3728 51.4501M54.3728 51.4501C55.2728 54.2167 55.8731 60.0719 75.2731 57.5719M71.3732 33.7719C68.7732 33.2719 66.6732 32.6719 65.9731 33.2719C65.4131 33.7519 63.6065 35.9053 62.9731 37.1719C62.6731 38.1053 63.2787 40.8302 65.4731 40.1719C66.4732 39.8719 67.0208 39.1719 68.0208 38.7719C67.8208 39.6719 67.9696 41.7648 68.2732 42.3719C68.6732 43.1719 70.2732 44.3719 71.6732 42.8719C72.6429 41.8329 74.1732 38.9719 74.1732 37.6719C73.9732 36.3719 71.3732 33.7719 71.3732 33.7719ZM71.3732 33.7719L65.4731 42.5719C61.8731 49.1719 64.8731 53.462 62.4731 56.5719C60.0731 59.6819 55.96 63.6719 48.8731 61.4719C41.8992 59.7938 34.1234 50.4104 30.3163 58.2156M90.8731 57.5719C98.5549 58.298 113.918 58.0901 113.918 51.4501M13.1727 82.272L15.6507 84.2205L17.9969 81.0944L16.5727 79.872L9.59517 74.2089L7.29643 77.2779L9.67266 79.272M13.1727 82.272L9.67266 79.272M13.1727 82.272L10.0829 85.99M9.67266 79.272L6.58293 82.99M10.8378 75.1838L23.3386 60.4439M23.3386 60.4439L28.2805 59.0898M23.3386 60.4439L28.9448 65.1028M28.2805 59.0898L29.4714 60.0794M28.2805 59.0898L29.5418 57.5719L29.8998 57.8695L30.3163 58.2156M28.9448 65.1028L27.1786 67.2429L26.1594 68.4762M28.9448 65.1028L29.4714 60.0794M29.4714 60.0794L30.7327 58.5616L30.3163 58.2156M16.6727 79.9578L19.6744 76.3822L20.4466 75.4217M10.0829 85.99L6.58293 82.99M10.0829 85.99L11.6727 87.372M6.58293 82.99L4.97266 81.572M26.1594 68.4762L25.1401 69.7095L23.2809 71.9592L23.1698 72.0936M26.1594 68.4762L23.9765 66.6477M23.1698 72.0936L21.4216 74.2089L20.4466 75.4217M23.1698 72.0936L20.9675 70.2581M20.4466 75.4217L18.2145 73.5613" stroke="#185D82" stroke-width="3" stroke-linecap="round" stroke-linejoin="round"/>
</g>
<defs>
<clipPath id="clip0_804_37">
<rect width="100" height="100" fill="white"/>
</clipPath>
</defs>
</svg>
