<svg width="100" height="100" viewBox="0 0 100 100" fill="none" xmlns="http://www.w3.org/2000/svg">
<path d="M4.87198 15.7128C4.19791 15.2312 3.26107 15.3873 2.77949 16.0613C2.29791 16.7354 2.45395 17.6722 3.12802 18.1538L4.87198 15.7128ZM55.9333 62.7L57.1163 61.7777L57.0791 61.73L57.0383 61.6855L55.9333 62.7ZM70.4 65.3L70.2459 66.792L70.2496 66.7924L70.4 65.3ZM84.9667 84.5333L84.0185 85.6956L84.0185 85.6956L84.9667 84.5333ZM84.2667 83.9463L85.2425 82.8072L85.2425 82.8071L84.2667 83.9463ZM78.8 83.7333L79.8191 82.6327L79.8191 82.6327L78.8 83.7333ZM67.0493 71.9656C66.294 71.6254 65.4058 71.962 65.0656 72.7173C64.7254 73.4727 65.062 74.3608 65.8173 74.701L67.0493 71.9656ZM77.2667 75.8L77.6857 74.3597L77.5368 74.3164L77.3823 74.3044L77.2667 75.8ZM75.9667 78.6333L75.7201 77.1537L75.7201 77.1537L75.9667 78.6333ZM65.2 78.1333L65.7138 76.7241L65.7138 76.7241L65.2 78.1333ZM58.9667 78.3666L59.1751 79.8521L59.1862 79.8505L59.1972 79.8488L58.9667 78.3666ZM48.2333 72.3666L49.6046 71.7586L49.5189 71.5655L49.3832 71.4035L48.2333 72.3666ZM4.93247 41.6052C4.28356 41.0902 3.34004 41.1988 2.82505 41.8477C2.31006 42.4966 2.41862 43.4401 3.06753 43.9551L4.93247 41.6052ZM73.5382 56.9225L72.2215 56.2039L72.2215 56.2039L73.5382 56.9225ZM70.575 57.5765L69.8564 58.8932L69.8564 58.8932L70.575 57.5765ZM76.2099 47.2516L76.9285 45.9349L76.9285 45.9349L76.2099 47.2516ZM77.263 50.0975L78.5797 50.8161L78.5797 50.8161L77.263 50.0975ZM45.7354 32.8909L47.052 33.6095L47.052 33.6095L45.7354 32.8909ZM48.6986 32.2369L49.4172 30.9202L49.4172 30.9202L48.6986 32.2369ZM43.0636 42.5618L42.345 43.8785L42.345 43.8785L43.0636 42.5618ZM66.4851 47.1625C65.7579 46.7657 64.8467 47.0334 64.4498 47.7606C64.0529 48.4878 64.3207 49.399 65.0479 49.7959L66.4851 47.1625ZM69.3653 52.1522C70.0925 52.5491 71.0037 52.2813 71.4006 51.5541C71.7975 50.8269 71.5297 49.9157 70.8025 49.5188L69.3653 52.1522ZM60.1594 43.7102C59.4323 43.3134 58.5211 43.5811 58.1242 44.3083C57.7273 45.0355 57.9951 45.9467 58.7223 46.3436L60.1594 43.7102ZM59.0235 46.508C59.7507 46.9048 60.6619 46.6371 61.0587 45.9099C61.4556 45.1827 61.1878 44.2715 60.4607 43.8746L59.0235 46.508ZM55.7416 41.2991C55.0144 40.9022 54.1032 41.17 53.7063 41.8972C53.3094 42.6244 53.5772 43.5356 54.3044 43.9325L55.7416 41.2991ZM54.6056 44.0969C55.3328 44.4937 56.244 44.226 56.6409 43.4988C57.0377 42.7716 56.77 41.8604 56.0428 41.4635L54.6056 44.0969ZM24.7644 16.4288L23.45 15.7061C23.4418 15.7211 23.4338 15.7363 23.426 15.7516L24.7644 16.4288ZM26.8091 37.0004L25.9173 35.7943L26.8091 37.0004ZM17.608 32.4699L16.1144 32.3316C16.1098 32.3816 16.1077 32.4318 16.1081 32.482L17.608 32.4699ZM30.0314 34.7476L30.8793 35.985C31.0268 35.8839 31.155 35.7573 31.2579 35.6111L30.0314 34.7476ZM18.0458 27.7433L16.756 26.9774C16.6423 27.1689 16.5727 27.3833 16.5522 27.605L18.0458 27.7433ZM34.9667 26.5333L33.686 25.7523C33.6806 25.7611 33.6753 25.7701 33.6701 25.7791L34.9667 26.5333ZM66.3273 40.9474C67.1557 40.9387 67.8202 40.2602 67.8116 39.4318C67.803 38.6035 67.1244 37.9389 66.2961 37.9475L66.3273 40.9474ZM56.6488 35.5837L55.1504 35.6519L56.6488 35.5837ZM59.9801 34.6122L60.368 33.1632L59.9801 34.6122ZM65.6441 34.8518L65.4662 33.3624L65.4662 33.3624L65.6441 34.8518ZM74.4865 38.9445L75.6643 38.0155L74.4865 38.9445ZM82.3631 43.0093C83.1914 43.0253 83.8758 42.3668 83.8918 41.5386C83.9078 40.7103 83.2493 40.0259 82.4211 40.0099L82.3631 43.0093ZM82.1303 58.7277L80.6305 58.7027C80.6238 59.1048 80.7789 59.4928 81.0609 59.7795C81.3429 60.0662 81.7282 60.2277 82.1303 60.2277L82.1303 58.7277ZM90.7959 58.7277L90.7959 60.2277C91.6243 60.2277 92.2959 59.5561 92.2959 58.7277H90.7959ZM90.7939 39.5146L92.2939 39.5097C92.2912 38.6946 91.6381 38.0308 90.8231 38.0148L90.7939 39.5146ZM82.4522 39.3517L82.4815 37.852C82.083 37.8442 81.6977 37.9954 81.4109 38.2721C81.124 38.5488 80.959 38.9283 80.9524 39.3268L82.4522 39.3517ZM82.1811 55.6701L83.6809 55.695L83.6809 55.695L82.1811 55.6701ZM75.479 57.5289L76.2433 58.8196L76.2433 58.8196L75.479 57.5289ZM95.9666 41.6345C96.7951 41.6345 97.4666 40.9629 97.4666 40.1345C97.4666 39.3061 96.7951 38.6345 95.9666 38.6345L95.9666 41.6345ZM95.814 59.0211C96.6381 59.1054 97.3745 58.5056 97.4588 57.6815C97.5431 56.8574 96.9434 56.121 96.1193 56.0367L95.814 59.0211ZM45.7031 49.8489L44.5472 50.8049L44.5472 50.8049L45.7031 49.8489ZM45.9254 47.5024L44.9694 46.3465L44.9694 46.3465L45.9254 47.5024ZM48.3896 50.4823L47.4337 49.3263L47.4337 49.3263L48.3896 50.4823ZM46.0431 50.2601L47.1991 49.3041L47.1991 49.3041L46.0431 50.2601ZM52.6149 44.8254L51.4589 45.7813L51.4589 45.7813L52.6149 44.8254ZM52.3926 47.1719L51.4367 46.016L51.4367 46.016L52.3926 47.1719ZM52.2749 44.4142L53.4308 43.4583L53.4308 43.4583L52.2749 44.4142ZM49.9284 44.192L48.9724 43.0361L48.9724 43.0361L49.9284 44.192ZM52.3785 52.7974L53.5344 51.8415L53.5344 51.8415L52.3785 52.7974ZM52.6007 50.4509L51.6448 49.295L51.6448 49.295L52.6007 50.4509ZM55.065 53.4308L54.109 52.2749L54.109 52.2749L55.065 53.4308ZM52.7185 53.2086L51.5625 54.1645L51.5625 54.1645L52.7185 53.2086ZM59.2902 47.7739L60.4461 46.818L60.4461 46.818L59.2902 47.7739ZM59.068 50.1204L60.0239 51.2764L60.0239 51.2764L59.068 50.1204ZM58.9502 47.3628L57.7943 48.3187L57.7943 48.3187L58.9502 47.3628ZM56.6037 47.1405L55.6478 45.9846L55.6478 45.9846L56.6037 47.1405ZM58.7816 55.6257L59.9376 54.6698L59.9375 54.6698L58.7816 55.6257ZM59.0038 53.2792L58.0479 52.1233L58.0479 52.1233L59.0038 53.2792ZM61.4681 56.2591L62.4241 57.415L62.4241 57.415L61.4681 56.2591ZM59.1216 56.0369L57.9657 56.9928L57.9657 56.9928L59.1216 56.0369ZM65.6934 50.6022L64.5374 51.5581L64.5374 51.5581L65.6934 50.6022ZM65.4711 52.9487L66.4271 54.1047L66.4271 54.1047L65.4711 52.9487ZM65.3534 50.1911L66.5093 49.2351L66.5093 49.2351L65.3534 50.1911ZM63.0068 49.9688L62.0509 48.8129L62.0509 48.8129L63.0068 49.9688ZM64.8242 58.8481L63.6683 59.804L63.6683 59.804L64.8242 58.8481ZM65.0465 56.5016L66.0024 57.6575L66.0121 57.6495L66.0216 57.6414L65.0465 56.5016ZM67.5108 59.4814L68.4667 60.6374L68.4763 60.6294L68.4859 60.6213L67.5108 59.4814ZM65.1642 59.2592L66.3202 58.3033L66.3202 58.3033L65.1642 59.2592ZM71.2313 54.1421L70.0754 55.098L70.0754 55.098L71.2313 54.1421ZM71.0091 56.4886L70.0532 55.3327L70.0435 55.3406L70.034 55.3488L71.0091 56.4886ZM70.8913 53.7309L72.0473 52.775L72.0473 52.775L70.8913 53.7309ZM68.5448 53.5087L67.5889 52.3528L67.5792 52.3608L67.5697 52.3689L68.5448 53.5087ZM17.0294 37.0717C16.2222 37.258 15.7188 38.0634 15.9051 38.8706C16.0914 39.6778 16.8967 40.1812 17.704 39.9949L17.0294 37.0717ZM18.5706 39.7949C19.3778 39.6086 19.8812 38.8032 19.6949 37.996C19.5086 37.1888 18.7033 36.6854 17.896 36.8717L18.5706 39.7949ZM19.3056 38.1571C18.7664 37.5281 17.8195 37.4553 17.1905 37.9944C16.5615 38.5336 16.4886 39.4805 17.0278 40.1095L19.3056 38.1571ZM17.2278 40.3428C17.7669 40.9718 18.7139 41.0447 19.3429 40.5055C19.9718 39.9664 20.0447 39.0194 19.5056 38.3905L17.2278 40.3428ZM18.0758 27.6927L19.3656 28.4585L19.3656 28.4585L18.0758 27.6927ZM48.3867 45.467L49.3426 46.6229L49.3426 46.6229L48.3867 45.467ZM54.556 48.8339L55.5119 49.9899L55.5119 49.9899L54.556 48.8339ZM58.2113 50.8289L57.2554 49.6729L57.2554 49.6729L58.2113 50.8289ZM60.4737 52.0636L61.4297 53.2196L61.4297 53.2196L60.4737 52.0636ZM64.1291 54.0586L63.1731 52.9026L63.1731 52.9026L64.1291 54.0586ZM66.4326 55.3158L67.4077 56.4556L67.4077 56.4556L66.4326 55.3158ZM70.0636 57.2975L69.0885 56.1576L69.0885 56.1576L70.0636 57.2975ZM30.8 19.9655L30.0558 21.2679L30.0558 21.2679L30.8 19.9655ZM31.1333 19.4322L30.3979 20.7395L31.1333 19.4322ZM54.7504 63.6223C55.5395 64.6344 57.6744 66.1666 60.8667 66.1666V63.1666C58.619 63.1666 57.3494 62.0767 57.1163 61.7777L54.7504 63.6223ZM60.8667 66.1666C63.5003 66.1666 68.1989 66.5807 70.2459 66.792L70.5541 63.8079C68.5123 63.5971 63.673 63.1666 60.8667 63.1666V66.1666ZM70.2496 66.7924C71.4086 66.9092 74.422 67.7921 76.3932 70.2677L78.7401 68.3989C76.1247 65.1145 72.258 63.9796 70.5504 63.8075L70.2496 66.7924ZM76.3932 70.2677C77.5644 71.7385 80.7144 75.3598 83.5703 78.6684C85.0086 80.3346 86.38 81.9303 87.4136 83.1619C87.9313 83.7788 88.3567 84.2955 88.6609 84.68C88.8138 84.8733 88.9272 85.0222 89.0035 85.1281C89.1142 85.2818 89.072 85.2441 89.0185 85.1178L91.7814 83.9489C91.6822 83.7142 91.5175 83.4855 91.4378 83.3748C91.3236 83.2162 91.1787 83.0274 91.0138 82.819C90.6825 82.4 90.235 81.8572 89.7116 81.2334C88.6629 79.9838 87.2789 78.3737 85.8413 76.7082C82.9456 73.3535 79.8622 69.8081 78.7401 68.3989L76.3932 70.2677ZM89.0185 85.1178C88.8266 84.6641 88.9588 84.2247 89.1329 83.9802C89.2597 83.802 89.3746 83.7619 89.3107 83.7944C89.2059 83.8477 88.9117 83.9446 88.4531 83.9838C87.5169 84.0638 86.5139 83.8597 85.9149 83.371L84.0185 85.6956C85.446 86.8602 87.3431 87.0895 88.7085 86.9729C89.4008 86.9137 90.1078 86.7547 90.6707 86.4685C90.9407 86.3311 91.3061 86.1003 91.577 85.7197C91.8952 85.2727 92.0651 84.6192 91.7814 83.9489L89.0185 85.1178ZM85.9149 83.371C85.7145 83.2076 85.489 83.0183 85.2425 82.8072L83.2908 85.0855C83.5502 85.3077 83.7948 85.5131 84.0185 85.6956L85.9149 83.371ZM85.2425 82.8071C83.411 81.2383 80.5986 78.6153 78.8102 76.9192L76.7458 79.096C78.5342 80.7921 81.3957 83.4622 83.2908 85.0855L85.2425 82.8071ZM78.8102 76.9192C78.522 76.6459 78.2614 76.3976 78.0371 76.183L75.9629 78.3503C76.1907 78.5684 76.4546 78.8198 76.7458 79.096L78.8102 76.9192ZM83.7139 82.5519C83.2244 82.746 82.3792 82.9805 81.5384 83.0235C80.6542 83.0687 80.0968 82.8898 79.8191 82.6327L77.7809 84.834C78.9432 85.9101 80.508 86.0801 81.6916 86.0196C82.9185 85.9569 84.0867 85.6313 84.8195 85.3408L83.7139 82.5519ZM79.8191 82.6327C79.6561 82.4817 79.4864 82.321 79.3124 82.1533L77.2305 84.3133C77.4165 84.4926 77.6008 84.6673 77.7809 84.834L79.8191 82.6327ZM79.3124 82.1533C78.0154 80.9032 76.5465 79.3284 75.9127 78.6273L73.6873 80.6393C74.3455 81.3672 75.8652 82.9974 77.2305 84.3133L79.3124 82.1533ZM77.6781 81.8556C77.2187 82.0535 76.4148 82.2809 75.6151 82.2858C74.8148 82.2908 74.2464 82.0799 73.8955 81.6789L71.6378 83.6544C72.7802 84.96 74.3579 85.2936 75.6335 85.2858C76.9096 85.2779 78.1114 84.9354 78.8647 84.611L77.6781 81.8556ZM73.8955 81.6789C72.3845 79.952 71.3295 78.8837 70.9555 78.5355L68.9112 80.7312C69.1816 80.9829 70.1621 81.9679 71.6378 83.6544L73.8955 81.6789ZM65.8173 74.701C68.175 75.7628 71.0317 76.4049 73.234 76.7826C74.3479 76.9736 75.3208 77.1012 76.0166 77.1813C76.3648 77.2214 76.6446 77.2496 76.8392 77.268C76.9365 77.2772 77.0125 77.2839 77.0651 77.2884C77.0915 77.2907 77.112 77.2924 77.1264 77.2935C77.1336 77.2941 77.1392 77.2946 77.1434 77.2949C77.1454 77.2951 77.1471 77.2952 77.1484 77.2953C77.149 77.2954 77.1496 77.2954 77.15 77.2954C77.1502 77.2955 77.1505 77.2955 77.1506 77.2955C77.1508 77.2955 77.151 77.2955 77.2667 75.8C77.3823 74.3044 77.3825 74.3045 77.3826 74.3045C77.3826 74.3045 77.3827 74.3045 77.3827 74.3045C77.3828 74.3045 77.3827 74.3045 77.3826 74.3045C77.3823 74.3044 77.3816 74.3044 77.3805 74.3043C77.3784 74.3041 77.3748 74.3038 77.3696 74.3034C77.3592 74.3026 77.3429 74.3012 77.3208 74.2993C77.2766 74.2956 77.2094 74.2896 77.1214 74.2813C76.9452 74.2647 76.6857 74.2385 76.3595 74.201C75.7063 74.1258 74.7895 74.0055 73.741 73.8257C71.6183 73.4617 69.0583 72.8705 67.0493 71.9656L65.8173 74.701ZM76.8477 77.2403C77.0295 77.2932 77.1037 77.3489 77.1128 77.3565C77.1197 77.3623 77.0391 77.2961 76.9988 77.1336C76.979 77.0538 76.9743 76.9691 76.9852 76.8874C76.996 76.8066 77.0198 76.7459 77.0396 76.7081C77.0768 76.6372 77.0874 76.6672 76.9591 76.7509L78.5969 79.2643C79.463 78.6999 80.2248 77.6786 79.9106 76.4115C79.6256 75.2624 78.6095 74.6284 77.6857 74.3597L76.8477 77.2403ZM76.959 76.7509C76.7727 76.8723 76.3889 77.0422 75.7201 77.1537L76.2133 80.1129C77.1511 79.9566 77.9624 79.6778 78.5969 79.2643L76.959 76.7509ZM75.7201 77.1537C74.8496 77.2988 74.1 77.4999 73.4798 77.6508C72.8435 77.8056 72.2978 77.9205 71.683 77.9617C70.4792 78.0424 68.8092 77.8526 65.7138 76.7241L64.6862 79.5426C67.9908 80.7474 70.1041 81.0743 71.8837 80.955C72.7605 80.8962 73.5065 80.7318 74.189 80.5658C74.8875 80.3959 75.4837 80.2345 76.2133 80.1129L75.7201 77.1537ZM65.7138 76.7241C64.6252 76.3272 63.135 76.3683 61.9654 76.464C60.7148 76.5664 59.4692 76.7704 58.7361 76.8845L59.1972 79.8488C59.9641 79.7295 61.0911 79.5456 62.2102 79.454C63.4102 79.3558 64.2867 79.3969 64.6862 79.5426L65.7138 76.7241ZM58.7582 76.8812C56.5687 77.1885 51.7281 76.5479 49.6046 71.7586L46.8621 72.9747C49.7519 79.4921 56.2979 80.2559 59.1751 79.8521L58.7582 76.8812ZM49.3832 71.4035C45.3846 66.6297 39.2316 63.2173 31.7984 59.0566C24.2882 54.8529 15.2129 49.7641 4.93247 41.6052L3.06753 43.9551C13.5513 52.2753 22.8093 57.4631 30.3331 61.6745C37.9339 65.9289 43.5154 69.0702 47.0834 73.3298L49.3832 71.4035ZM43.3272 40.4345L47.052 33.6095L44.4187 32.1723L40.6939 38.9973L43.3272 40.4345ZM75.9463 49.3789L72.2215 56.2039L74.8548 57.6411L78.5797 50.8161L75.9463 49.3789ZM75.4913 48.5683C75.7378 48.7028 75.8824 48.8949 75.9434 49.0596C76.003 49.2207 75.9769 49.323 75.9463 49.3789L78.5797 50.8161C79.5937 48.9582 78.5888 46.841 76.9285 45.9349L75.4913 48.5683ZM47.052 33.6095C47.0826 33.5535 47.1545 33.4762 47.3222 33.4392C47.4937 33.4014 47.7335 33.4191 47.98 33.5536L49.4172 30.9202C47.7569 30.0141 45.4327 30.3144 44.4187 32.1723L47.052 33.6095ZM40.6939 38.9973C39.6799 40.8553 40.6847 42.9724 42.345 43.8785L43.7822 41.2452C43.5357 41.1107 43.3911 40.9185 43.3302 40.7538C43.2706 40.5928 43.2967 40.4905 43.3272 40.4345L40.6939 38.9973ZM47.698 43.3823L43.7822 41.2452L42.345 43.8785L46.2609 46.0156L47.698 43.3823ZM47.98 33.5536L51.8958 35.6907L53.333 33.0573L49.4172 30.9202L47.98 33.5536ZM51.8958 35.6907L75.4913 48.5683L76.9285 45.9349L53.333 33.0573L51.8958 35.6907ZM48.2961 45.4175L53.9311 35.0926L51.2977 33.6554L45.6628 43.9804L48.2961 45.4175ZM65.0479 49.7959L69.3653 52.1522L70.8025 49.5188L66.4851 47.1625L65.0479 49.7959ZM58.7223 46.3436L59.0235 46.508L60.4607 43.8746L60.1594 43.7102L58.7223 46.3436ZM54.3044 43.9325L54.6056 44.0969L56.0428 41.4635L55.7416 41.2991L54.3044 43.9325ZM36.0389 21.9174C35.9734 22.0636 35.5116 22.5446 34.1598 22.6808C32.9289 22.8048 31.3559 22.5749 29.852 21.8491L28.548 24.5509C30.5354 25.5101 32.6625 25.8468 34.4606 25.6657C36.1379 25.4966 38.0344 24.8005 38.7766 23.1442L36.0389 21.9174ZM29.852 21.8491C28.309 21.1044 27.1702 20.0884 26.5423 19.1267C25.894 18.1336 25.9259 17.4558 26.1029 17.106L23.426 15.7516C22.5719 17.4397 23.0759 19.3049 24.0303 20.7667C25.0051 22.2599 26.5997 23.6106 28.548 24.5509L29.852 21.8491ZM26.0789 17.1515C26.1849 16.9586 26.6609 16.5427 27.9352 16.4869C29.1228 16.435 30.6609 16.7343 32.2147 17.4842L33.5186 14.7824C31.5811 13.8473 29.5525 13.4133 27.8041 13.4898C26.1423 13.5625 24.3129 14.1368 23.45 15.7061L26.0789 17.1515ZM32.2147 17.4842C33.7593 18.2297 34.9212 19.254 35.5734 20.1946C36.2929 21.2323 36.1392 21.7279 36.1081 21.7819L38.7074 23.2797C39.6352 21.6695 38.9566 19.8089 38.0387 18.4851C37.0535 17.0643 35.4654 15.722 33.5186 14.7824L32.2147 17.4842ZM25.9173 35.7943C25.9214 35.7913 25.5761 35.9722 24.7277 35.9243C23.9566 35.8807 22.9603 35.6534 21.8815 35.1327L20.5775 37.8345C21.9886 38.5156 23.3688 38.8523 24.5584 38.9195C25.6708 38.9823 26.8703 38.8208 27.701 38.2065L25.9173 35.7943ZM21.8815 35.1327C20.7997 34.6106 20.0775 34.0133 19.6412 33.4893C19.1847 32.941 19.1088 32.562 19.108 32.4578L16.1081 32.482C16.1164 33.5056 16.6062 34.5327 17.3357 35.4088C18.0854 36.3093 19.1693 37.1549 20.5775 37.8345L21.8815 35.1327ZM16.5522 27.605L16.1144 32.3316L19.1017 32.6082L19.5394 27.8816L16.5522 27.605ZM36.1271 21.7497L33.686 25.7523L36.2473 27.3143L38.6884 23.3118L36.1271 21.7497ZM46.4979 31.5992L35.7293 25.2416L34.2041 27.825L44.9728 34.1826L46.4979 31.5992ZM33.6701 25.7791L29.6368 32.7124L32.2299 34.2209L36.2632 27.2876L33.6701 25.7791ZM29.7068 32.6031L28.8049 33.8841L31.2579 35.6111L32.1598 34.3302L29.7068 32.6031ZM42.7476 38.4094L31.6704 32.1602L30.1963 34.7731L41.2735 41.0223L42.7476 38.4094ZM16.6325 28.2458C18.3052 32.9505 23.5387 37.0832 30.2202 36.2357L29.8427 33.2595C24.6613 33.9168 20.6948 30.7162 19.4591 27.2408L16.6325 28.2458ZM66.2961 37.9475C64.6778 37.9644 62.4593 37.8017 60.6797 37.2873C59.7856 37.0288 59.1089 36.7113 58.6765 36.3676C58.2736 36.0473 58.1591 35.7746 58.1473 35.5155L55.1504 35.6519C55.2114 36.9921 55.9172 38.0065 56.8098 38.716C57.6729 39.4021 58.7671 39.8572 59.8466 40.1693C62.0142 40.7959 64.5544 40.9658 66.3273 40.9474L66.2961 37.9475ZM58.1473 35.5155C58.1403 35.3625 58.1783 35.4493 58.0709 35.6037C57.9503 35.777 57.8054 35.8106 57.8305 35.8046C57.8806 35.7928 58.0431 35.7724 58.3737 35.8102C58.6923 35.8466 59.0956 35.9282 59.5922 36.0611L60.368 33.1632C59.2904 32.8747 58.1123 32.6546 57.1382 32.8856C56.5909 33.0154 56.012 33.3103 55.6086 33.8899C55.2183 34.4506 55.1248 35.0888 55.1504 35.6519L58.1473 35.5155ZM59.5922 36.0611C60.582 36.3262 62.027 36.4002 63.1695 36.4158C64.3343 36.4317 65.4358 36.3874 65.8221 36.3412L65.4662 33.3624C65.2821 33.3844 64.3404 33.4315 63.2103 33.4161C62.0578 33.4004 60.9559 33.3206 60.368 33.1632L59.5922 36.0611ZM65.8221 36.3412C65.6548 36.3612 65.6152 36.3302 65.8813 36.3785C66.0728 36.4134 66.3407 36.4735 66.671 36.5609C67.3294 36.7352 68.1787 37.0027 69.0667 37.3464C69.9573 37.6911 70.858 38.1013 71.6328 38.5544C72.4268 39.0187 72.9933 39.4735 73.3088 39.8734L75.6643 38.0155C75.0136 37.1907 74.0809 36.5107 73.1472 35.9647C72.1944 35.4075 71.1389 34.9316 70.1495 34.5487C69.1576 34.1648 68.2031 33.8631 67.4386 33.6608C67.0575 33.5599 66.7092 33.4799 66.4178 33.4269C66.2009 33.3875 65.8118 33.3211 65.4662 33.3624L65.8221 36.3412ZM73.3088 39.8734C74.408 41.267 76.3154 41.9963 77.9014 42.401C79.5667 42.8259 81.2738 42.9883 82.3631 43.0093L82.4211 40.0099C81.5193 39.9925 80.0465 39.8522 78.6432 39.4941C77.1606 39.1158 76.1108 38.5817 75.6643 38.0155L73.3088 39.8734ZM82.1303 60.2277L90.7959 60.2277L90.7959 57.2277L82.1303 57.2277L82.1303 60.2277ZM90.8231 38.0148L82.4815 37.852L82.4229 40.8514L90.7646 41.0143L90.8231 38.0148ZM80.9524 39.3268L80.6813 55.6452L83.6809 55.695L83.952 39.3766L80.9524 39.3268ZM80.6813 55.6452L80.6305 58.7027L83.6301 58.7526L83.6809 55.695L80.6813 55.6452ZM82.1793 54.1701C79.5628 54.1732 76.3907 55.2458 74.7148 56.2382L76.2433 58.8196C77.5282 58.0587 80.1797 57.1725 82.1829 57.1701L82.1793 54.1701ZM92.2959 40.1296L92.2939 39.5097L89.2939 39.5194L89.2959 40.1394L92.2959 40.1296ZM90.7959 41.6345L95.9666 41.6345L95.9666 38.6345L90.7959 38.6345L90.7959 41.6345ZM92.2959 58.7277V57H89.2959V58.7277H92.2959ZM92.2959 57V40.1345H89.2959V57H92.2959ZM90.6433 58.4922L95.814 59.0211L96.1193 56.0367L90.9485 55.5078L90.6433 58.4922ZM51.1189 45.3702L51.4589 45.7813L53.7708 43.8695L53.4308 43.4583L51.1189 45.3702ZM47.1991 49.3041L46.8591 48.893L44.5472 50.8049L44.8872 51.216L47.1991 49.3041ZM46.8591 48.893C46.8004 48.8221 46.8103 48.717 46.8813 48.6583L44.9694 46.3465C43.6217 47.461 43.4326 49.4571 44.5472 50.8049L46.8591 48.893ZM47.4337 49.3263C47.3628 49.385 47.2577 49.3751 47.1991 49.3041L44.8872 51.216C46.0017 52.5637 47.9978 52.7528 49.3456 51.6382L47.4337 49.3263ZM51.4589 45.7813C51.5176 45.8522 51.5076 45.9573 51.4367 46.016L53.3486 48.3278C54.6963 47.2133 54.8854 45.2172 53.7708 43.8695L51.4589 45.7813ZM53.4308 43.4583C52.3163 42.1106 50.3202 41.9215 48.9724 43.0361L50.8843 45.348C50.9552 45.2893 51.0603 45.2992 51.1189 45.3702L53.4308 43.4583ZM57.7943 48.3187L58.1343 48.7298L60.4461 46.818L60.1061 46.4068L57.7943 48.3187ZM53.8744 52.2526L53.5344 51.8415L51.2225 53.7534L51.5625 54.1645L53.8744 52.2526ZM53.5344 51.8415C53.4757 51.7706 53.4857 51.6655 53.5566 51.6069L51.6448 49.295C50.297 50.4095 50.108 52.4056 51.2225 53.7534L53.5344 51.8415ZM54.109 52.2749C54.0381 52.3335 53.933 52.3236 53.8744 52.2526L51.5625 54.1645C52.6771 55.5123 54.6732 55.7013 56.0209 54.5867L54.109 52.2749ZM58.1343 48.7298C58.1929 48.8008 58.183 48.9058 58.112 48.9645L60.0239 51.2764C61.3717 50.1618 61.5607 48.1657 60.4461 46.818L58.1343 48.7298ZM60.1061 46.4068C58.9916 45.0591 56.9955 44.87 55.6478 45.9846L57.5596 48.2965C57.6306 48.2378 57.7356 48.2478 57.7943 48.3187L60.1061 46.4068ZM64.1974 51.147L64.5374 51.5581L66.8493 49.6463L66.5093 49.2351L64.1974 51.147ZM60.2775 55.0809L59.9376 54.6698L57.6257 56.5817L57.9657 56.9928L60.2775 55.0809ZM59.9375 54.6698C59.8789 54.5989 59.8888 54.4938 59.9598 54.4352L58.0479 52.1233C56.7002 53.2378 56.5111 55.2339 57.6257 56.5817L59.9375 54.6698ZM60.5122 55.1032C60.4413 55.1618 60.3362 55.1519 60.2775 55.0809L57.9657 56.9928C59.0802 58.3406 61.0763 58.5296 62.4241 57.415L60.5122 55.1032ZM64.5374 51.5581C64.5961 51.6291 64.5861 51.7341 64.5152 51.7928L66.4271 54.1047C67.7748 52.9901 67.9639 50.994 66.8493 49.6463L64.5374 51.5581ZM66.5093 49.2351C65.3947 47.8874 63.3987 47.6984 62.0509 48.8129L63.9628 51.1248C64.0337 51.0661 64.1388 51.0761 64.1974 51.147L66.5093 49.2351ZM69.7354 54.6869L70.0754 55.098L72.3873 53.1861L72.0473 52.775L69.7354 54.6869ZM66.3202 58.3033L65.9802 57.8921L63.6683 59.804L64.0083 60.2151L66.3202 58.3033ZM65.9802 57.8922C65.9215 57.8212 65.9315 57.7162 66.0024 57.6575L64.0905 55.3456C62.7428 56.4602 62.5537 58.4563 63.6683 59.804L65.9802 57.8922ZM66.5548 58.3255C66.4839 58.3842 66.3788 58.3742 66.3202 58.3033L64.0083 60.2151C65.1229 61.5629 67.1189 61.7519 68.4667 60.6374L66.5548 58.3255ZM70.0754 55.098C70.1341 55.1689 70.1241 55.274 70.0532 55.3327L71.965 57.6445C73.3128 56.53 73.5018 54.5339 72.3873 53.1861L70.0754 55.098ZM72.0473 52.775C70.9327 51.4273 68.9366 51.2382 67.5889 52.3528L69.5008 54.6646C69.5717 54.606 69.6767 54.6159 69.7354 54.6869L72.0473 52.775ZM17.704 39.9949L18.5706 39.7949L17.896 36.8717L17.0294 37.0717L17.704 39.9949ZM17.0278 40.1095L17.2278 40.3428L19.5056 38.3905L19.3056 38.1571L17.0278 40.1095ZM23.4744 15.6629L16.7861 26.9269L19.3656 28.4585L26.0539 17.1946L23.4744 15.6629ZM16.7861 26.9268L16.756 26.9774L19.3355 28.5091L19.3656 28.4585L16.7861 26.9268ZM3.12802 18.1538C9.20712 22.497 11.7556 24.4883 17.1297 28.8567L19.022 26.5287C13.6089 22.1287 11.0106 20.0984 4.87198 15.7128L3.12802 18.1538ZM27.0931 37.2321C35.5369 44.565 42.4765 51.1917 47.3035 55.9834C49.7167 58.379 51.6012 60.3153 52.8808 61.651C53.5206 62.3188 54.0091 62.8365 54.3369 63.1863C54.5008 63.3612 54.6245 63.4941 54.7068 63.5829C54.748 63.6273 54.7788 63.6606 54.7991 63.6826C54.8092 63.6936 54.8168 63.7018 54.8217 63.7071C54.8241 63.7098 54.8259 63.7117 54.827 63.7129C54.8276 63.7135 54.828 63.714 54.8282 63.7142C54.8283 63.7143 54.8283 63.7144 54.8284 63.7144C54.8284 63.7144 54.8284 63.7144 55.9333 62.7C57.0383 61.6855 57.0382 61.6854 57.038 61.6852C57.0379 61.6851 57.0377 61.6849 57.0375 61.6847C57.037 61.6842 57.0364 61.6835 57.0357 61.6827C57.0341 61.681 57.0319 61.6786 57.0291 61.6755C57.0233 61.6693 57.015 61.6602 57.004 61.6483C56.982 61.6244 56.9494 61.5892 56.9065 61.543C56.8208 61.4505 56.6935 61.3138 56.526 61.135C56.191 60.7775 55.6949 60.2518 55.0471 59.5757C53.7516 58.2234 51.8496 56.2691 49.417 53.8543C44.5525 49.0253 37.5637 42.3517 29.0601 34.967L27.0931 37.2321ZM30.0314 34.7476C29.1836 33.5102 29.1836 33.5102 29.1836 33.5102C29.1835 33.5102 29.1835 33.5103 29.1835 33.5103C29.1835 33.5103 29.1834 33.5103 29.1833 33.5104C29.1832 33.5105 29.183 33.5106 29.1828 33.5108C29.1822 33.5111 29.1815 33.5117 29.1805 33.5123C29.1785 33.5137 29.1755 33.5158 29.1716 33.5184C29.1638 33.5238 29.1523 33.5317 29.1373 33.5419C29.1074 33.5624 29.0638 33.5924 29.0085 33.6304C28.8979 33.7064 28.7408 33.8144 28.5542 33.943C28.1814 34.2 27.6899 34.5399 27.2177 34.8698L28.9355 37.3292C29.4008 37.0043 29.8867 36.6682 30.257 36.413C30.4419 36.2854 30.5977 36.1783 30.7072 36.1031C30.7619 36.0655 30.8051 36.0359 30.8345 36.0157C30.8492 36.0057 30.8604 35.9979 30.868 35.9927C30.8718 35.9901 30.8746 35.9882 30.8765 35.9869C30.8775 35.9862 30.8782 35.9857 30.8787 35.9854C30.8789 35.9853 30.8791 35.9852 30.8792 35.9851C30.8792 35.985 30.8793 35.985 30.8793 35.985C30.8793 35.985 30.8793 35.985 30.8793 35.985C30.8793 35.985 30.8793 35.985 30.0314 34.7476ZM27.2177 34.8698C26.7176 35.2191 26.2237 35.5678 25.9173 35.7943L27.701 38.2065C27.9705 38.0072 28.4333 37.68 28.9355 37.3292L27.2177 34.8698ZM46.8813 48.6583L49.3426 46.6229L47.4307 44.311L44.9694 46.3465L46.8813 48.6583ZM49.3426 46.6229L50.8843 45.348L48.9724 43.0361L47.4307 44.311L49.3426 46.6229ZM49.1053 44.1503L47.698 43.3823L46.2609 46.0156L47.6681 46.7836L49.1053 44.1503ZM51.4367 46.016L51.086 46.306L52.9979 48.6178L53.3486 48.3278L51.4367 46.016ZM51.086 46.306L47.4337 49.3263L49.3456 51.6382L52.9979 48.6178L51.086 46.306ZM55.2746 47.5173L52.7606 46.1452L51.3234 48.7786L53.8374 50.1506L55.2746 47.5173ZM53.5566 51.6069L55.5119 49.9899L53.6 47.678L51.6448 49.295L53.5566 51.6069ZM55.5119 49.9899L57.5596 48.2965L55.6478 45.9846L53.6 47.678L55.5119 49.9899ZM58.112 48.9645L57.2554 49.6729L59.1672 51.9848L60.0239 51.2764L58.112 48.9645ZM57.2554 49.6729L54.109 52.2749L56.0209 54.5867L59.1672 51.9848L57.2554 49.6729ZM61.1923 50.747L58.9299 49.5122L57.4927 52.1456L59.7552 53.3803L61.1923 50.747ZM59.9598 54.4352L61.4297 53.2196L59.5178 50.9077L58.0479 52.1233L59.9598 54.4352ZM61.4297 53.2196L63.9628 51.1248L62.0509 48.8129L59.5178 50.9077L61.4297 53.2196ZM64.5152 51.7928L63.1731 52.9026L65.085 55.2145L66.4271 54.1047L64.5152 51.7928ZM63.1731 52.9026L60.5122 55.1032L62.4241 57.415L65.085 55.2145L63.1731 52.9026ZM67.1512 53.9991L64.8476 52.7419L63.4105 55.3753L65.714 56.6324L67.1512 53.9991ZM66.0216 57.6414L67.4077 56.4556L65.4575 54.1759L64.0714 55.3618L66.0216 57.6414ZM67.4077 56.4556L69.5199 54.6485L67.5697 52.3689L65.4575 54.1759L67.4077 56.4556ZM71.2935 56.2599L70.7822 55.9808L69.345 58.6141L69.8564 58.8932L71.2935 56.2599ZM70.034 55.3488L69.0885 56.1576L71.0387 58.4373L71.9842 57.6284L70.034 55.3488ZM69.0885 56.1576L66.5356 58.3416L68.4859 60.6213L71.0387 58.4373L69.0885 56.1576ZM74.7148 56.2382C74.5056 56.3621 73.9042 56.5046 72.7225 56.3057L72.2246 59.2641C73.6114 59.4975 75.1001 59.4965 76.2433 58.8196L74.7148 56.2382ZM72.2215 56.2039C72.1934 56.2554 72.136 56.3175 72.0106 56.3581L72.9366 59.2117C73.7131 58.9597 74.4219 58.4343 74.8548 57.6411L72.2215 56.2039ZM72.0106 56.3581C71.84 56.4135 71.5729 56.4123 71.2935 56.2599L69.8564 58.8932C70.8258 59.4223 71.9454 59.5333 72.9366 59.2117L72.0106 56.3581ZM31.0363 19.7403C31.3102 19.2146 31.7756 19.0528 31.9112 19.0117C32.0848 18.9592 32.2227 18.9543 32.2681 18.9533C32.3706 18.9509 32.4297 18.9632 32.4061 18.9593C32.3791 18.9549 32.2948 18.9369 32.162 18.8979C32.037 18.8611 31.9013 18.8152 31.7789 18.7675C31.6485 18.7167 31.5711 18.6785 31.5442 18.6632L30.0558 21.2679C30.4375 21.486 30.9447 21.6669 31.3156 21.776C31.5096 21.833 31.7262 21.8882 31.925 21.9205C32.0142 21.935 32.1673 21.9565 32.3389 21.9524C32.4189 21.9506 32.5851 21.9422 32.78 21.8832C32.9369 21.8357 33.4166 21.6645 33.697 21.1263L31.0363 19.7403ZM31.5442 18.6632C31.288 18.5167 31.0624 18.363 30.9339 18.2579C30.8576 18.1955 30.8801 18.2026 30.9352 18.2746C30.9571 18.3032 31.062 18.4401 31.1295 18.6636C31.2033 18.9079 31.2735 19.4352 30.9 19.9333L28.5 18.1333C28.1015 18.6647 28.1683 19.2353 28.2577 19.5311C28.3408 19.8062 28.4802 20.0029 28.553 20.098C28.7098 20.3029 28.8994 20.4695 29.0346 20.5801C29.3288 20.8207 29.7032 21.0664 30.0558 21.2679L31.5442 18.6632ZM30.9 19.9333C30.6928 20.2096 30.4412 20.3437 30.2855 20.406C30.1294 20.4685 29.9994 20.4876 29.9323 20.4947C29.8592 20.5025 29.8041 20.5016 29.7762 20.5005C29.7462 20.4993 29.7267 20.4969 29.7204 20.4961C29.7124 20.4951 29.7632 20.5029 29.8769 20.5369C29.9792 20.5675 30.0937 20.6077 30.199 20.6499C30.3108 20.6948 30.3778 20.7282 30.3979 20.7395L31.8687 18.1248C31.5436 17.9419 31.0978 17.7708 30.7366 17.6627C30.5537 17.608 30.326 17.5492 30.1013 17.5204C29.9962 17.507 29.8186 17.49 29.616 17.5115C29.5053 17.5232 28.9121 17.5838 28.5 18.1333L30.9 19.9333ZM30.3979 20.7395C30.598 20.8521 30.8603 21.0267 31.051 21.1761C31.1527 21.2557 31.1857 21.2907 31.1756 21.2797C31.1698 21.2734 31.1537 21.2556 31.1321 21.2274C31.1123 21.2014 31.0737 21.1483 31.0326 21.0715C30.9956 21.0022 30.9254 20.8565 30.891 20.6531C30.8551 20.4398 30.8498 20.0984 31.0363 19.7403L33.697 21.1263C34.077 20.3967 33.7291 19.752 33.6783 19.6571C33.5748 19.4635 33.4496 19.3204 33.3809 19.2459C33.2294 19.0816 33.0497 18.9309 32.9011 18.8144C32.5911 18.5716 32.202 18.3123 31.8687 18.1248L30.3979 20.7395Z" fill="#185D82"/>
</svg>
