<svg width="100" height="100" viewBox="0 0 100 100" fill="none" xmlns="http://www.w3.org/2000/svg">
<path d="M98 38V9C98 5.45093 94.5662 3 91 3H9C5.43385 3 3 5.45093 3 9V70C3 73.5491 5.43385 77 9 77H40M98 38H74V65H98M98 38V65M98 65V70C98 73.5491 94.5662 77 91 77H59M25 22C25.7408 22.2911 26.942 22.5 28 22.5C28.8552 22.5 29.1917 22.2969 30 22M25 22C22.8691 21.1628 21 19.5285 21 16.5C21 12.1633 23.8989 10 28 10C31.6044 10 33.6473 11.8505 34 15M25 22V25C25 25 20.8295 24.8219 19 26C17.1705 27.1781 10.9686 34.2508 10 36.5C9.23575 38.2747 10.5877 42.3202 15 39C19.2186 34.8016 20.6054 31.9282 21 31L18 64C15.74 64 12.1722 64.5152 12 67C11.9258 68.071 11.8162 68.2503 13 69C14.7219 69.4284 24 69 24 69L28 47L32 69C32 69 42.4619 69.357 43 69C43.5381 68.643 44 67.5 43 66C42 64.5 41 65 38 64C37.9061 63.1586 37.3138 60.8846 37 58M37 58C36.5432 53.8002 36.5999 48.3899 36 43M37 58H34M37 58H54M36 43C35.5014 38.5199 34.3553 33.9462 34 31M36 43H24M36 43H54M34 31L42 39C43.8295 41.2492 48.7981 40.7125 46 36C45.0291 34.1061 43.1735 32.383 42 31M34 31H29M34 31H42M42 31C39.9217 28.5506 38.3068 26.6503 37 26C34.9553 24.9825 30 25 30 25V22M42 31H54M30 22C32.2088 21.1887 34 19.079 34 16C34 15.5057 34.0486 15.434 34 15M34 15H54M54 15V10H63V17H54V15ZM54 31V26H63V33H54V31ZM54 43V38H63V46H54V43ZM54 58V53H63V61H54V58ZM79 44H91M79 51H91M79 58H91M40 77V89M40 77H59M40 89H59M40 89H12V98H88V89H59M59 77V89M91 14C90 15.5 89.519 15.6965 89 16M89 16C88.3512 16.3795 87.4808 16.5527 86 16.5C85.4717 16.4812 84.6968 16.0896 84 16M89 16L82 10M82 22C81.4867 22.421 79.7557 22.927 79 23C77.8781 23 77.6376 23.2059 77 23M82 22C85 21 82.5 14 82 12C81.6911 10.7643 81.7235 10.5703 82 10M82 22L77 16M81.5 15.5C79.5 15 77.5297 15.392 77 16M77 16C76.6138 16.4432 75 18 76 22C76.9235 25.6942 76.2465 28.6291 76 29M82 10C82.0368 9.92418 81.9609 10.0671 82 10ZM82 10C82.0984 9.83139 82.5 8.5 84 8M70 22.5C69.4908 22.7364 69.271 22.7881 69 23M70 22.5L76 29M70 22.5C71.077 22 73 21.5 75 22M75 30C75.338 29.7526 75.6539 29.5208 76 29" stroke="#185D82" stroke-width="3" stroke-linecap="round" stroke-linejoin="round"/>
</svg>
