<svg width="100" height="100" viewBox="0 0 100 100" fill="none" xmlns="http://www.w3.org/2000/svg">
<path d="M43.0138 11.9955C46.1934 11.9955 52.5891 11.9955 53.9766 11.9955C54.1285 11.9955 54.8361 11.9978 54.9733 11.9955M43.0138 11.9955C42.4356 11.9955 41.0948 11.9955 41.0205 11.0014C40.9174 9.62122 41.0205 8.1783 41.0205 7.02493C41.0205 5.72739 41.9731 6.03081 43.0138 6.03081H53.9766C54.3525 6.03078 56.9665 5.72733 56.9665 7.02493C56.9665 8.75498 56.9665 10.1364 56.9665 11.0014C56.9665 12.2091 56.0887 11.9771 54.9733 11.9955M43.0138 11.9955V18.9544M43.0138 42.8133H54.9733M43.0138 42.8133C39.2572 42.8133 40.0015 46.5976 40.0239 48.778M43.0138 42.8133V36.8486M54.9733 11.9955V42.8133M54.9733 42.8133C57.1413 43.2458 56.9665 43.2419 56.9665 48.778M40.0239 48.778C40.0239 48.7446 40.0242 48.8123 40.0239 48.778ZM40.0239 48.778L37.034 54.7428C36.6004 56.0403 36.7215 57.25 37.674 57.7251C39.0615 58.4171 39.4609 58.4384 40.0239 58.7192C40.8911 59.1518 41.9294 58.8936 43.0138 56.731C44.315 54.1359 44.1398 54.4846 45.007 52.7545M40.0239 48.778H45.007M56.9665 48.778L59.9564 54.7428C60.3901 56.0403 60.6519 57.1749 60 57.5C59.1328 57.9325 57.9184 58.537 56.9665 58.7192C55.5 59 54.8117 58.3976 53.9766 56.731C53.1098 55.001 52.8506 54.4846 51.9834 52.7545M56.9665 48.778H51.9834M45.007 48.778V56.731C45.007 57.3077 45.2656 59 47 59C48.7344 59 50.5664 59 51 59C51.4336 59 51.9834 58.115 51.9834 56.731C51.9834 55.347 51.9834 50.9406 51.9834 48.778M45.007 48.778H51.9834M43.0138 18.9544H34.0441C34.0441 18.9544 32.0509 19.1674 32.0509 23.925M43.0138 18.9544V36.8486M32.0509 23.925C33.6407 23.925 37 24.6417 37 29C37 32.4601 33.5 33.5 32 33.5M32.0509 23.925C31.1837 23.8425 26.8525 24.5 26.8525 28.3753C26.8525 29.5096 26.8525 30.758 27.8525 31.8753M43.0138 36.8486H34.0441C33.3529 36.8486 32 37.1807 32 33.5M32 33.5C30.302 33.5032 28.8525 32.9926 27.8525 31.8753M27.8525 31.8753C8.73405 36.7592 6.41167 60.3491 24.0779 68.6605M28.8525 70.3753C27.7051 71.2506 27.0678 72.637 27.0678 74.6252C27.0678 76.6134 28.3525 79.8753 32.8525 79.3753C34.9015 79.1476 37 77.5766 37 74.5C37 71.4234 35 70 33.5 69.5C32 69 30 69.5 28.8525 70.3753ZM28.8525 70.3753C26.9471 69.899 25.643 69.3968 24.0779 68.6605M29.3526 24.3488C-6.4205 31.027 -0.722273 71.5823 24.0779 77.6076M28.277 77.9383C26.4625 77.8651 25.7301 78.009 24.0779 77.6076M38.7447 65.6781H59.9564C62.991 65.6781 62.9909 72.637 59.9564 72.637C50.5904 72.637 43.7257 72.637 41.7023 72.637M24.0779 68.6605C23.7892 67.0316 23.9464 64.338 27.0678 64.684C30.536 64.684 35.1551 64.684 37.034 64.684C40.9363 64.684 41.1351 77.6076 46.0036 77.6076C51.2067 77.6076 56.9213 77.6076 59.9564 77.6076M59.9564 77.6076C60.1072 77.6076 59.8179 77.5817 59.9564 77.6076ZM59.9564 77.6076C61.0123 77.8046 61.9496 78.7545 61.9496 80.5899C61.9496 81.5544 61.9496 82.5026 61.9496 83.5723M59.9564 77.6076L66.9327 60.7075V52.7545C66.9327 51.8895 67.6252 51.7604 68.926 51.7604C71.0072 51.7604 72.3344 51.7604 72.9125 51.7604C73.4906 51.7604 74.9058 51.3705 74.9058 52.7545C74.9058 54.1386 74.9058 58.8333 74.9058 60.7075L75.1194 61.7016M24.0779 77.6076C24.0779 79.1879 24.0779 83.1385 24.0779 85.5605C24.0779 87.9826 25.204 89.3928 26.0711 89.537H58.9598C60.2605 89.537 61.9496 89.2788 61.9496 87.5488C61.9496 86.6224 61.9496 84.8052 61.9496 83.5723M64.9395 80.5899C64.9913 81.6235 65.0574 82.8067 65.9361 83.5723M64.9395 80.5899C64.6757 75.3277 72.7779 72.8824 80.8855 72.637M64.9395 80.5899V83.5723M96.8315 80.5899V87.5488C97.2651 95.7665 65.3731 96.199 64.9395 87.5488V83.5723M96.8315 80.5899C96.8916 81.7293 96.897 82.7214 95.8349 83.5723M96.8315 80.5899C96.5386 75.0394 89.4372 72.3781 80.8855 72.637M65.9361 83.5723C71.3924 88.3258 90.1516 88.1255 95.8349 83.5723M65.9361 83.5723C71.3951 77.6283 90.1477 77.6045 95.8349 83.5723M73.9091 83.5723C74.9208 82.9956 78.1545 82.2322 79.8889 82.5782M83.8754 82.5782C85.1761 83.8757 86.5611 83.5723 87.8619 83.5723M80.8855 72.637L75.1194 61.7016M75.1194 61.7016H71.9159M76.899 65.6781H73.9091M78.8923 69.6546H75.9024M61.9496 83.5723H64.9395" stroke="#185D82" stroke-width="3" stroke-linecap="round"/>
</svg>
