<svg width="100" height="100" viewBox="0 0 100 100" fill="none" xmlns="http://www.w3.org/2000/svg">
<path d="M65 41C67.3805 49.0931 67.61 68.0939 42.5616 63.3729M65 41C64.5 39.3001 64.3825 38.0924 64.0715 36.5M65 41C70.7819 42.7865 79.8529 40.1053 82.233 37.7449C84.2739 35.9674 81.893 32.3495 79.1724 34.3728C78.2788 35.0373 77.2367 35.5615 76.1118 35.9674M42.5616 63.3729C44.2784 76.6946 38.9098 80.0287 38.7034 80.2335C36.6631 82.2567 33.2622 79.8963 35.6427 77.5358C36.6595 76.7602 37.4065 75.7349 37.9208 74.5009M42.5616 63.3729C42.3733 61.9116 42.0997 60.3301 41.7247 58.6194M59.5709 35.3844C58.698 28.9806 58.1602 21.3289 63.1895 18.5238C66.59 16.6272 68.2832 20.3499 65.57 22.2331C64.9523 22.6619 64.4558 23.362 64.0715 24.2564M59.5709 35.3844C45.1648 30.6635 32.582 39.0937 36.6629 56.6287C36.7867 57.0584 36.9063 57.4853 37.0214 57.9091M59.5709 35.3844C59.7831 36.9405 60.0595 38.398 60.3577 39.6515M60.3577 39.6515C60.3945 39.8059 60.4316 39.9573 60.4689 40.1053C61.4669 44.4443 61.7717 47.8701 61.5398 50.5589M60.3577 39.6515C57.3942 38.8256 53.31 38.1666 49.586 38.6389M64.0715 36.5C63.2083 32.0798 62.5 29.5 64.0715 24.2564M64.0715 36.5C67.1673 37.1187 71.9734 37.4606 76.1118 35.9674M37.0214 57.9091C28.75 56.7039 26.4108 56.5422 20.6795 60.6752C17.2786 62.6986 19.6595 66.0706 22.3804 64.3845C23.5881 63.6361 24.5066 62.636 25.7807 62.1237M37.0214 57.9091C37.4367 59.4387 37.7932 60.9277 38.0774 62.3613M41.7247 58.6194C43.1746 58.8393 44.7668 59.0772 46.5258 59.3263C48.3765 59.5885 50.2272 59.745 51.9665 59.6703M41.7247 58.6194C41.5372 57.7637 41.3242 56.8757 41.0839 55.9543C40.198 52.5575 39.9583 49.7812 40.2092 47.524M64.0715 24.2564L76.1118 35.9674M49.586 38.6389L61.5398 50.5589M49.586 38.6389C47.1356 38.9497 44.8412 39.7502 43.1245 41.3152M61.5398 50.5589C61.2682 53.7078 60.2605 55.8458 58.768 57.2562M43.1245 41.3152L58.768 57.2562M43.1245 41.3152C41.593 42.7113 40.5214 44.7159 40.2092 47.524M58.768 57.2562C57.0273 58.9011 54.6272 59.5562 51.9665 59.6703M40.2092 47.524L51.9665 59.6703M25.7807 62.1237C28.8097 60.9058 32.7152 61.0321 38.0774 62.3613M25.7807 62.1237L37.9208 74.5009M38.0774 62.3613C39.0465 67.2508 39.1737 71.495 37.9208 74.5009M79 84.709C71.0869 91.1433 60.9938 95 50 95C24.5949 95 4 74.4051 4 49C4 23.5949 24.5949 3 50 3C75.4051 3 96 23.5949 96 49C96 61.3394 91.1415 72.544 83.233 80.8052M79 84.709L90 96C92.5 99 97 95.4965 94.5 92.5C89.3 86.2672 84.822 82.1065 83.233 80.8052M79 84.709C80.4913 83.4965 81.9052 82.1923 83.233 80.8052M91 49C91 71.6437 72.8675 90 50.5 90C28.1325 90 10 71.6437 10 49C10 26.3563 28.1325 8 50.5 8C72.8675 8 91 26.3563 91 49Z" stroke="#185D82" stroke-width="3"/>
</svg>
