<svg width="100" height="100" viewBox="0 0 100 100" fill="none" xmlns="http://www.w3.org/2000/svg">
<path d="M16.0918 44.3243C16.8007 42.3915 18.7201 38.0974 20.0789 34.4075C22.9145 36.2817 24.1979 36.6211 30.0465 37.3825C33.328 37.8097 33.9942 42.2158 34.0336 44.3243M16.0918 44.3243C13.6106 43.8558 13.6621 49.2827 17.0886 49.2827C18.2803 52.1381 19.5915 53.9742 21.0756 55.2328M16.0918 44.3243C13.65 40.5563 10.8156 32.3618 20.0789 30.4407C26.6364 24.8766 40.8274 29.8575 34.0336 44.3243M34.0336 44.3243C36.8693 43.3872 37.6373 48.9313 34.0336 49.2827C33.4899 51.5928 32.001 53.7228 30.0465 55.2328M21.0756 55.2328C24.3329 57.9952 27.304 57.3517 30.0465 55.2328M21.0756 55.2328C21.3481 56.617 20.9463 59.4001 19.0821 61.183M30.0465 55.2328C29.816 57.497 31.0098 60.0616 32.0401 61.183M13.1015 64.158C12.043 64.3752 10.6692 64.3663 10.0176 64.5C1.45146 66.2571 3.13382 76.9087 3.13382 83H23.0692M13.1015 64.158L23.0692 83M13.1015 64.158C15.7542 63.6138 17.9111 62.3029 19.0821 61.183M13.1015 64.158C12.235 65.1989 10.0682 67.5856 11.108 71.0998M23.0692 83L20.0789 67.1331M23.0692 83H46.9916M19.0821 61.183L20.0789 67.1331M32.0401 61.183C22.0262 63.2501 24.0659 75.8338 24.0659 83H45.9948M32.0401 61.183C33.6173 61.1094 34.7898 60.4467 36.0271 60.1913M20.0789 67.1331C22.4156 67.7968 22.4402 68.1247 24.0659 68.1247M14.0983 78.0416H16.0918C16.269 68.5533 4.86843 70.0721 8.11765 79.0333H10.1112M64.9334 44.3243C65.6399 42.3915 67.5663 38.0974 68.9204 34.4075C71.7465 36.2817 73.0593 36.6211 78.8881 37.3825C82.1585 37.8097 82.8359 42.2158 82.8752 44.3243M64.9334 44.3243C62.4605 43.8558 62.5153 49.2827 65.9301 49.2827C67.1178 52.1381 68.4381 53.9742 69.9172 55.2328M64.9334 44.3243C62.4998 40.5563 59.6885 32.3618 68.9204 30.4407C75.4558 24.8766 89.646 29.8575 82.8752 44.3243M82.8752 44.3243C85.7013 43.3872 86.4667 48.9313 82.8752 49.2827C82.3333 51.5928 80.836 53.7228 78.8881 55.2328M69.9172 55.2328C73.1635 57.9952 76.1549 57.3517 78.8881 55.2328M69.9172 55.2328C70.1888 56.617 69.7816 59.4001 67.9237 61.183M78.8881 55.2328C78.6584 57.497 79.8548 59.0699 80.8816 60.1913M74.901 83H77.8913M77.8913 83H96.8299C97.3206 77.2601 97.3077 64.158 90.8493 64.158C84.785 64.158 82.612 62.081 80.8816 60.1913M77.8913 83L85.8655 64.158C87.0038 65.0683 89.8718 67.1197 89.024 71.0249M77.8913 83L79.8849 67.1331M80.8816 60.1913L79.8849 67.1331M79.8849 67.1331C76.9377 68.7262 76.2742 68.8924 75.3315 68.8924M89.024 71.0249C87.7876 70.728 86.1486 71.5 86.0175 73C85.8383 75.0499 87.232 75.7676 88.0272 75.9834C88.6749 76.1591 90.8388 76.0143 91.0175 74C91.1941 72.0086 90.0838 71.2795 89.024 71.0249ZM39.0174 37.3825C39.8462 35.1086 41.4161 30.8151 43.0045 26.474C46.3194 28.679 48.1286 28.5533 54.9657 29.4491C58.8018 29.9517 59.9035 34.9019 59.9495 37.3825M39.0174 37.3825C36.1169 36.8313 35.0119 43.3326 39.0174 43.3326C40.4106 46.6918 42.2663 49.7854 44.0013 51.2661M39.0174 37.3825C36.1629 32.9496 32.1757 22.784 43.0045 20.5239C50.6703 13.9778 67.8916 20.3628 59.9495 37.3825M59.9495 37.3825C63.2645 36.28 64.1623 42.9192 59.9495 43.3326C59.314 46.0504 57.2505 49.4895 54.9657 51.2661M44.0013 51.2661C47.8091 54.516 51.7597 53.7589 54.9657 51.2661M44.0013 51.2661C44.3198 52.8945 43.1902 55.1187 41.011 57.2162M54.9657 51.2661C54.6962 53.9298 54.758 55.897 55.9625 57.2162M36.0271 60.1913L45.9948 83M36.0271 60.1913C39.1281 59.551 39.6421 58.5337 41.011 57.2162M36.0271 60.1913C35.0142 61.4158 31.8213 64.9821 33.0368 69.1164M45.9948 83H52.9722M45.9948 83L43.0045 65.1497M41.011 57.2162L43.0045 65.1497M52.9722 83H75.8978C76.4733 76.2472 76.496 61.183 68.9204 61.183C61.8071 61.183 57.9922 59.4394 55.9625 57.2162M52.9722 83L62.9328 60.665C64.268 61.7359 66.9246 64.522 65.9301 69.1164M52.9722 83L54.9657 65.1497M55.9625 57.2162L54.9657 65.1497M43.0045 65.1497C45.7362 65.9306 51.5087 67.0239 54.9657 65.1497M37.0239 77.0499H39.0174C39.2246 65.8872 26.2481 67.499 30.0465 78.0416H32.0401M65.9301 69.1164C63.5175 68.5353 62.0692 70.6445 61.9431 72.0915C61.7329 74.5032 63.5847 75.7462 64.5175 76C66.2968 76.4842 68.8079 75.3698 69.0175 73C69.2247 70.6572 67.1732 69.4158 65.9301 69.1164Z" stroke="#185D82" stroke-width="2.8" stroke-linecap="round" stroke-linejoin="round"/>
</svg>
