<svg width="100" height="100" viewBox="0 0 100 100" fill="none" xmlns="http://www.w3.org/2000/svg">
<path d="M28.8619 57.4211C29.063 59.5255 28.5665 62.7748 25.8994 65.3368M28.8619 57.4211C25.231 54.9941 15.2705 48.2436 14.0492 41.5895C12.364 33.7728 12.6022 21.7159 24.9118 17.8421C28.2022 16.8067 34.2266 15.6865 38.737 15.8632C47.3224 16.1994 52.0414 20.3211 48.6121 27.7368M28.8619 57.4211C28.8619 52.7511 27.7095 50.8334 25.8994 47.5263C24.1898 47.5263 23.4396 47.0632 22.9368 44.5579C21.8306 41.0504 23.6262 38.6084 25.8994 39.6105C25.8994 36.8046 25.3241 33.9247 29.8494 29.7158C36.044 31.1589 45.1294 28.9394 48.6121 27.7368M42.6871 59.4C46.502 59.4 47.5407 56.7333 48.6121 48.5158C53.768 48.0108 49.2502 42.4292 48.6121 38.6211C48.5361 36.0155 48.4965 34.7683 48.6121 32.6842C48.7456 30.2791 48.8318 29.1948 48.6121 27.7368M42.6871 59.4C42.3572 62.6536 43.188 62.736 44.6621 64.3474M42.6871 59.4C37.1497 59.4 37.5021 58.1225 34.787 57.4211M17.9993 69.2947C16.4849 69.6068 15.1731 69.5523 13 70C0.744309 72.525 3.18658 88.2467 3.18658 97H31.8244M17.9993 69.2947L31.8244 97M17.9993 69.2947C21.7945 68.5127 24.224 66.9462 25.8994 65.3368M17.9993 69.2947C16.7596 70.7905 13.5491 75.129 15.0367 80.1789M31.8244 97H39.7245M31.8244 97L27.8744 74.2421M25.8994 65.3368L27.8744 74.2421M39.7245 97H68.3624C68.7901 91.9906 68.6099 82.3572 66.3873 76.2211M39.7245 97L51.5747 69.2947C53.2088 70.6028 56.7418 74.5671 55.5247 80.1789M39.7245 97L42.6871 74.2421M44.6621 64.3474C47.1462 67.0629 49.7815 69.2947 58.4872 69.2947C62.1279 69.2947 64.9504 72.2537 66.3873 76.2211M44.6621 64.3474L42.6871 74.2421M27.8744 74.2421C31.2176 75.196 38.4561 76.5314 42.6871 74.2421M19.9743 89.0842H21.9493C22.2029 75.4493 6.43796 78.1857 11.0867 91.0632L13.0617 90.0737M55.5247 80.1789C53.7497 79.7523 51.729 81.3799 51.5747 83.1474C51.3174 86.0932 53.3956 86.7952 54.5372 87.1053C55.4669 87.3578 58.2308 87.0315 58.4872 84.1368C58.7408 81.2752 57.0461 80.5447 55.5247 80.1789ZM66.3873 76.2211H97.0002V22.7895M74.2874 6.95789C74.2874 18.3822 96.0348 19.0215 97.0002 22.7895M97.0002 22.7895V3H40.712V14.8737M64.4123 6.95789C64.4123 13.3005 55.407 17.7716 48.6121 19.8211M69.3499 24.7684V69.2947M52.5622 39.6105C52.5622 36.0029 86.1376 35.602 86.1376 39.6105M56.5122 57.4211C56.5122 53.8134 81.6847 53.5127 82.1875 57.4211M53.5497 48.5158C53.5497 44.9081 84.6473 44.6075 85.1501 48.5158M56.5122 32.6842C56.5122 29.0765 81.6847 28.7759 82.1875 32.6842M81.2 66.3263C80.9654 65.1783 80.3212 63.3579 74.2874 63.3579M57.4997 66.3263C57.7344 65.1783 58.5797 63.3579 64.4123 63.3579" stroke="#185D82" stroke-width="3" stroke-linecap="round" stroke-linejoin="round"/>
</svg>
