<svg width="100" height="100" viewBox="0 0 100 100" fill="none" xmlns="http://www.w3.org/2000/svg">
<path d="M38.0631 17C47.6569 17 55.5 30.5659 55.5 47C55.5 48.149 55.574 48.8849 55.5 50M38.0631 17C34.5944 17 31.7846 18.9996 29.0725 22C24.2835 27.2983 21.0809 36.5077 21.0809 47C21.0809 52.1041 21.757 56.8021 23.0788 61M38.0631 17H19.083C9.48924 17 2.10092 29.5659 2.10092 46C2.10092 51.7258 2.46274 57.4615 4.09882 62M28.0736 50H36.0652H41.0599M34.0673 62H46.0547M23.0788 61H7.09566C6.16388 61 4.85238 61.5657 4.09882 62M23.0788 61H30.0715M4.09882 62C2.55688 62.8886 2.10092 64.0901 2.10092 66V84C2.10092 84.2275 1.87385 85 2.10092 85H35.0662C35.2933 85 35.0662 84.2275 35.0662 84V70M35.0662 76C35.8885 76.5148 36.8296 77 38.0631 77C44.3302 77 49.9921 70.5239 53.0473 62M48.0526 50C48.1148 48.9562 48.0526 48.0825 48.0526 47C48.0526 33.9778 43.7967 24 38.0631 24C32.728 24 28.6588 32.2383 28.0736 44M48.0526 50H55.5M48.0526 50H41.0599M46.0547 62C44.1507 67.0424 41.2172 71 38.0631 71C37.1761 71 35.888 70.4753 35.0662 70M46.0547 62H53.0473M55.5 50H94.0042C95.8208 50 98 52.1803 98 54V62H86.0126M53.0473 62H61.0389M35.0662 70V65C35.0662 62.6117 33.4547 61 31.0704 61H30.0715M30.0715 61C28.817 57.1024 28.0736 52.1977 28.0736 47C28.0736 46.0948 28.0299 44.8786 28.0736 44M61.0389 62V67M61.0389 62H86.0126M61.0389 67H71.0284H77.0221H86.0126M61.0389 67V77M86.0126 67V62M86.0126 67V77M86.0126 77V85H61.0389V77M86.0126 77H77.0221H71.0284H61.0389M83.0158 23H90.0084M80.0189 29H92.0063M66.0336 35H75.0242M87.0116 35H92.0063M79.02 35H82.0168M28.0736 44C37.0527 44 41.0599 43.9869 41.0599 50M14.0883 26H22.0799M8.09461 47H17.0852M8.09461 54H17.0852M36.0652 85H49.0515V71M61.0389 16H96.0021V43H61.0389V16ZM19.083 35.5C19.083 38.1158 16.6996 40 14.0883 40C11.477 40 9 38.1158 9 35.5C9 32.8842 11.477 31 14.0883 31C16.6996 31 19.083 32.8842 19.083 35.5ZM66.0336 22H75.0242V30H66.0336V22Z" stroke="#185D82" stroke-width="3" stroke-linecap="round" stroke-linejoin="round"/>
</svg>
