<svg width="100" height="100" viewBox="0 0 100 100" fill="none" xmlns="http://www.w3.org/2000/svg">
<g clip-path="url(#clip0_202_450)">
<path fill-rule="evenodd" clip-rule="evenodd" d="M25.0005 38.3325C24.7817 38.3325 24.565 38.3756 24.3628 38.4594C24.1606 38.5431 23.9769 38.6659 23.8221 38.8206C23.6674 38.9754 23.5446 39.1591 23.4608 39.3613C23.3771 39.5635 23.334 39.7802 23.334 39.9991V71.6649C23.334 72.1069 23.5096 72.5308 23.8221 72.8434C24.1347 73.1559 24.5585 73.3315 25.0005 73.3315C25.4425 73.3315 25.8664 73.1559 26.179 72.8434C26.4915 72.5308 26.6671 72.1069 26.6671 71.6649V39.9991C26.6671 39.5571 26.4915 39.1332 26.179 38.8206C25.8664 38.5081 25.4425 38.3325 25.0005 38.3325Z" fill="#185D82"/>
<path d="M40.0002 26.666H30.0004C29.0541 26.6655 28.1186 26.867 27.2563 27.257C26.3941 27.6471 25.6251 28.2166 25.0006 28.9276C24.3761 28.2166 23.607 27.6471 22.7448 27.257C21.8826 26.867 20.947 26.6655 20.0007 26.666H10.0009C6.31917 26.666 3.33447 29.6507 3.33447 33.3324V78.3314C3.33447 82.0131 6.31917 84.9978 10.0009 84.9978H20.0007C20.9466 84.9987 21.8818 84.7979 22.744 84.4088C23.6062 84.0197 24.3755 83.4512 25.0006 82.7412C25.6601 83.4751 26.4748 84.053 27.3855 84.4328C25.5103 89.5327 27.4359 95.2503 32.0139 98.1772C36.5919 101.104 42.5898 100.452 46.4317 96.6093L49.5533 93.4861C50.5144 95.4374 52.0019 97.0811 53.8478 98.2317C55.6938 99.3824 57.8246 99.994 59.9997 99.9977H73.3328C75.1497 99.9986 76.9417 99.5747 78.5656 98.7597C80.1895 97.9446 81.6002 96.7612 82.6852 95.3038C83.7702 93.8464 84.4993 92.1554 84.8143 90.366C85.1293 88.5766 85.0214 86.7383 84.4994 84.998H88.3327C92.9326 84.9925 96.6602 81.2649 96.6659 76.6648V34.9992C96.6661 31.4039 95.6032 27.8889 93.6109 24.8961L92.4892 23.2444C91.1864 21.2676 90.3745 19.0083 90.1209 16.6545C92.83 16.5885 94.9937 14.3762 94.9991 11.6663V8.3332C94.9935 3.73312 91.2658 0.00546862 86.6657 0H59.9997C55.3998 0.00546862 51.6722 3.73312 51.6665 8.3332V11.6665C51.672 14.3766 53.8356 16.5889 56.5447 16.6547C56.2926 19.0024 55.4848 21.2562 54.1882 23.2295L53.0433 24.9111C51.0579 27.9009 49.9992 31.4102 50 34.9992V66.7834C48.8944 66.6172 47.7695 66.6262 46.6667 66.8102V33.3326C46.6667 29.6507 43.682 26.666 40.0002 26.666ZM26.6671 78.3316C26.6671 77.8896 26.4915 77.4657 26.179 77.1531C25.8665 76.8406 25.4426 76.665 25.0006 76.665C24.5586 76.665 24.1347 76.8406 23.8221 77.1531C23.5096 77.4657 23.334 77.8896 23.334 78.3316C23.334 80.1725 21.8417 81.6649 20.0007 81.6649H10.0009C8.15995 81.6649 6.6676 80.1725 6.6676 78.3316V33.3326C6.6676 31.4916 8.15995 29.9993 10.0009 29.9993H20.0007C21.8417 29.9993 23.334 31.4916 23.334 33.3326C23.334 33.7746 23.5096 34.1985 23.8221 34.5111C24.1347 34.8236 24.5586 34.9992 25.0006 34.9992C25.4426 34.9992 25.8665 34.8236 26.179 34.5111C26.4915 34.1985 26.6671 33.7746 26.6671 33.3326C26.6671 31.4916 28.1595 29.9993 30.0004 29.9993H40.0002C41.8412 29.9993 43.3335 31.4916 43.3335 33.3326V67.8502C42.1871 68.4083 41.1413 69.1528 40.2387 70.0534L39.3586 70.9317C38.9879 70.2518 38.4639 69.6677 37.828 69.2257C37.1921 68.7837 36.4619 68.4961 35.6954 68.3856C34.929 68.2752 34.1473 68.3449 33.4125 68.5893C32.6777 68.8338 32.01 69.2462 31.4624 69.7937C30.9148 70.3413 30.5024 71.009 30.258 71.7438C30.0136 72.4786 29.9438 73.2603 30.0543 74.0268C30.1647 74.7933 30.4524 75.5234 30.8944 76.1593C31.3363 76.7952 31.9205 77.3193 32.6004 77.69L30.0555 80.2366C29.67 80.6272 29.313 81.0449 28.9872 81.4866C28.3149 81.2763 27.7273 80.8569 27.31 80.2894C26.8926 79.7219 26.6674 79.036 26.6671 78.3316ZM36.6669 73.3317C36.6564 73.4564 36.6312 73.5794 36.5919 73.6983L35.3669 74.9232C35.2481 74.9625 35.125 74.9877 35.0003 74.9982C34.6707 74.9982 34.3485 74.9005 34.0744 74.7174C33.8004 74.5342 33.5868 74.274 33.4606 73.9695C33.3345 73.6649 33.3015 73.3298 33.3658 73.0066C33.4301 72.6833 33.5888 72.3863 33.8219 72.1532C34.055 71.9202 34.3519 71.7614 34.6752 71.6971C34.9985 71.6328 35.3336 71.6658 35.6381 71.792C35.9426 71.9181 36.2029 72.1317 36.386 72.4058C36.5692 72.6799 36.6669 73.0021 36.6669 73.3317ZM44.0718 94.2529C40.8502 97.4745 35.6271 97.4745 32.4055 94.2529C29.1839 91.0313 29.1839 85.8081 32.4055 82.5865L36.3337 78.68L48 90.3463L44.0718 94.2529ZM64.9996 96.6643H59.9997C55.3975 96.6643 51.6665 92.9334 51.6665 88.3311C51.6665 83.7289 55.3975 79.9979 59.9997 79.9979H64.9996V96.6643ZM73.3328 96.6643H68.3329V79.9981H73.3328C77.9351 79.9981 81.666 83.7289 81.666 88.3313C81.6658 92.9336 77.9351 96.6643 73.3328 96.6643ZM54.9999 11.6663V8.3332C54.9999 5.57194 57.2385 3.33332 59.9997 3.33332H86.6657C89.427 3.33332 91.6656 5.57194 91.6656 8.3332V11.6665C91.6656 12.1085 91.49 12.5324 91.1775 12.845C90.8649 13.1575 90.441 13.3331 89.999 13.3331H88.3325V9.99977C88.3325 9.55777 88.1569 9.13387 87.8444 8.82133C87.5318 8.50879 87.1079 8.3332 86.6659 8.3332C86.2239 8.3332 85.8 8.50879 85.4875 8.82133C85.1749 9.13387 84.9994 9.55777 84.9994 9.99977V13.3331H81.666V9.99977C81.666 9.55777 81.4904 9.13387 81.1779 8.82133C80.8654 8.50879 80.4415 8.3332 79.9995 8.3332C79.5575 8.3332 79.1336 8.50879 78.821 8.82133C78.5085 9.13387 78.3329 9.55777 78.3329 9.99977V13.3331H74.9996V9.99977C74.9996 9.55777 74.824 9.13387 74.5115 8.82133C74.1989 8.50879 73.775 8.3332 73.333 8.3332C72.891 8.3332 72.4671 8.50879 72.1546 8.82133C71.842 9.13387 71.6665 9.55777 71.6665 9.99977V13.3331H68.3331V9.99977C68.3331 9.55777 68.1576 9.13387 67.845 8.82133C67.5325 8.50879 67.1086 8.3332 66.6666 8.3332C66.2246 8.3332 65.8007 8.50879 65.4881 8.82133C65.1756 9.13387 65 9.55777 65 9.99977V13.3331H61.6667V9.99977C61.6667 9.55777 61.4911 9.13387 61.1786 8.82133C60.866 8.50879 60.4421 8.3332 60.0001 8.3332C59.5581 8.3332 59.1342 8.50879 58.8217 8.82133C58.5092 9.13387 58.3336 9.55777 58.3336 9.99977V13.3331H56.667C56.4481 13.3331 56.2313 13.2901 56.0291 13.2063C55.8268 13.1226 55.643 12.9998 55.4882 12.845C55.3334 12.6903 55.2106 12.5065 55.1268 12.3043C55.043 12.102 54.9999 11.8852 54.9999 11.6663ZM53.3333 34.9992C53.332 32.0718 54.194 29.2091 55.8116 26.7693L56.9565 25.0877C58.6248 22.5689 59.6413 19.6751 59.9148 16.6662H86.7476C87.0225 19.6812 88.0431 22.5804 89.7174 25.1027L90.8391 26.7544C92.4646 29.1969 93.332 32.0653 93.3324 34.9992V76.6648C93.3324 79.4261 91.0937 81.6647 88.3325 81.6647H82.8926C81.82 80.1226 80.3906 78.8626 78.7261 77.992C77.0615 77.1214 75.2113 76.6661 73.3328 76.6648H59.8831C59.6439 74.8683 58.9806 73.1545 57.9482 71.6649H81.666C84.4273 71.6649 86.6659 69.4263 86.6659 66.665V43.3324C86.6659 40.5709 84.4273 38.3325 81.666 38.3325H53.3333V34.9992ZM53.3333 63.3319H68.3329C68.7749 63.3319 69.1988 63.1563 69.5114 62.8438C69.8239 62.5312 69.9995 62.1074 69.9995 61.6654C69.9995 61.2234 69.8239 60.7995 69.5114 60.4869C69.1988 60.1744 68.7749 59.9988 68.3329 59.9988H53.3333V56.6655H63.3331C63.7751 56.6655 64.199 56.4899 64.5115 56.1773C64.824 55.8648 64.9996 55.4409 64.9996 54.9989C64.9996 54.5569 64.824 54.133 64.5115 53.8205C64.199 53.5079 63.7751 53.3323 63.3331 53.3323H53.3333V49.9988H68.3329C69.2534 49.9988 69.9995 49.2528 69.9995 48.3323C69.9995 47.4118 69.2534 46.6657 68.3329 46.6657H53.3333V41.6658H81.666C81.8849 41.6658 82.1016 41.7089 82.3038 41.7927C82.506 41.8764 82.6897 41.9992 82.8445 42.1539C82.9992 42.3087 83.122 42.4924 83.2057 42.6946C83.2895 42.8968 83.3326 43.1135 83.3326 43.3324V66.6652C83.3326 66.8841 83.2895 67.1008 83.2057 67.303C83.122 67.5052 82.9992 67.6889 82.8445 67.8437C82.6897 67.9984 82.506 68.1212 82.3038 68.2049C82.1016 68.2887 81.8849 68.3318 81.666 68.3318H54.3948C54.0511 68.1238 53.6968 67.9341 53.3331 67.7635V63.3319H53.3333ZM48.425 69.9984C52.5691 69.9775 56.0694 73.0684 56.5615 77.1832C54.5336 77.8141 52.7157 78.9851 51.3026 80.5705C49.8895 82.156 48.9345 84.0961 48.5401 86.1829L38.8469 76.4898C39.0863 76.1986 39.2926 75.8817 39.4619 75.5449L42.5953 72.4116C43.3591 71.6438 44.2677 71.0351 45.2683 70.6209C46.269 70.2066 47.342 69.995 48.425 69.9984Z" fill="#185D82"/>
<path d="M15.0009 33.3326C12.2396 33.3326 10.001 35.5713 10.001 38.3325C10.001 41.0938 12.2396 43.3324 15.0009 43.3324C17.7621 43.3324 20.0007 41.0938 20.0007 38.3325C20.0007 35.5713 17.7621 33.3326 15.0009 33.3326ZM15.0009 39.9991C14.5589 39.9991 14.135 39.8235 13.8224 39.511C13.5099 39.1984 13.3343 38.7745 13.3343 38.3325C13.3343 37.8905 13.5099 37.4666 13.8224 37.1541C14.135 36.8415 14.5589 36.666 15.0009 36.666C15.4429 36.666 15.8668 36.8415 16.1793 37.1541C16.4918 37.4666 16.6674 37.8905 16.6674 38.3325C16.6674 38.7745 16.4918 39.1984 16.1793 39.511C15.8668 39.8235 15.4429 39.9991 15.0009 39.9991ZM15.0009 44.999C12.2396 44.999 10.001 47.2376 10.001 49.9988C10.001 52.7603 12.2396 54.9987 15.0009 54.9987C17.7621 54.9987 20.0007 52.7603 20.0007 49.9988C20.0007 47.2376 17.7621 44.999 15.0009 44.999ZM15.0009 51.6654C14.5589 51.6654 14.135 51.4898 13.8224 51.1773C13.5099 50.8647 13.3343 50.4408 13.3343 49.9988C13.3343 49.5569 13.5099 49.133 13.8224 48.8204C14.135 48.5079 14.5589 48.3323 15.0009 48.3323C15.4429 48.3323 15.8668 48.5079 16.1793 48.8204C16.4918 49.133 16.6674 49.5569 16.6674 49.9988C16.6674 50.4408 16.4918 50.8647 16.1793 51.1773C15.8668 51.4898 15.4429 51.6654 15.0009 51.6654ZM15.0009 56.6653C12.2396 56.6653 10.001 58.9039 10.001 61.6652C10.001 64.4264 12.2396 66.6651 15.0009 66.6651C17.7621 66.6651 20.0007 64.4264 20.0007 61.6652C20.0007 58.9039 17.7621 56.6653 15.0009 56.6653ZM15.0009 63.3319C14.782 63.3319 14.5653 63.2888 14.3631 63.2051C14.1609 63.1213 13.9772 62.9986 13.8224 62.8438C13.6677 62.6891 13.5449 62.5053 13.4612 62.3031C13.3774 62.1009 13.3343 61.8842 13.3343 61.6654C13.3343 61.4465 13.3774 61.2298 13.4612 61.0276C13.5449 60.8254 13.6677 60.6417 13.8224 60.4869C13.9772 60.3322 14.1609 60.2094 14.3631 60.1257C14.5653 60.0419 14.782 59.9988 15.0009 59.9988C15.4429 59.9988 15.8668 60.1744 16.1793 60.4869C16.4918 60.7995 16.6674 61.2234 16.6674 61.6654C16.6674 62.1074 16.4918 62.5313 16.1793 62.8438C15.8668 63.1563 15.4429 63.3319 15.0009 63.3319ZM15.0009 68.3318C12.2396 68.3318 10.001 70.5704 10.001 73.3317C10.001 76.093 12.2396 78.3316 15.0009 78.3316C17.7621 78.3316 20.0007 76.093 20.0007 73.3317C20.0007 70.5702 17.7621 68.3318 15.0009 68.3318ZM15.0009 74.9983C14.782 74.9983 14.5653 74.9552 14.3631 74.8714C14.1609 74.7877 13.9772 74.6649 13.8224 74.5101C13.6677 74.3554 13.5449 74.1717 13.4612 73.9695C13.3774 73.7673 13.3343 73.5506 13.3343 73.3317C13.3343 73.1128 13.3774 72.8961 13.4612 72.6939C13.5449 72.4917 13.6677 72.308 13.8224 72.1533C13.9772 71.9985 14.1609 71.8757 14.3631 71.792C14.5653 71.7082 14.782 71.6651 15.0009 71.6651C15.4429 71.6651 15.8668 71.8407 16.1793 72.1533C16.4918 72.4658 16.6674 72.8897 16.6674 73.3317C16.6674 73.7737 16.4918 74.1976 16.1793 74.5101C15.8668 74.8227 15.4429 74.9983 15.0009 74.9983ZM35.0004 66.6651C37.7617 66.6651 40.0003 64.4264 40.0003 61.6652C40.0003 58.9039 37.7617 56.6653 35.0004 56.6653C32.2391 56.6653 30.0005 58.9039 30.0005 61.6652C30.0005 64.4266 32.2389 66.6651 35.0004 66.6651ZM35.0004 59.9986C35.4424 59.9986 35.8663 60.1742 36.1788 60.4867C36.4914 60.7993 36.667 61.2232 36.667 61.6652C36.667 62.1072 36.4914 62.5311 36.1788 62.8436C35.8663 63.1562 35.4424 63.3317 35.0004 63.3317C34.5584 63.3317 34.1345 63.1562 33.822 62.8436C33.5094 62.5311 33.3338 62.1072 33.3338 61.6652C33.3338 61.2232 33.5094 60.7993 33.822 60.4867C34.1345 60.1742 34.5584 59.9986 35.0004 59.9986ZM35.0004 43.3324C37.7617 43.3324 40.0003 41.0938 40.0003 38.3325C40.0003 35.5713 37.7617 33.3326 35.0004 33.3326C32.2391 33.3326 30.0005 35.5713 30.0005 38.3325C30.0005 41.0938 32.2389 43.3324 35.0004 43.3324ZM35.0004 36.6658C35.4424 36.6658 35.8663 36.8413 36.1788 37.1539C36.4914 37.4664 36.667 37.8903 36.667 38.3323C36.667 38.7743 36.4914 39.1982 36.1788 39.5108C35.8663 39.8233 35.4424 39.9989 35.0004 39.9989C34.5584 39.9989 34.1345 39.8233 33.822 39.5108C33.5094 39.1982 33.3338 38.7743 33.3338 38.3323C33.3338 37.8903 33.5094 37.4664 33.822 37.1539C34.1345 36.8413 34.5584 36.6658 35.0004 36.6658ZM35.0004 54.9987C37.7617 54.9987 40.0003 52.7603 40.0003 49.9988C40.0003 47.2376 37.7617 44.999 35.0004 44.999C32.2391 44.999 30.0005 47.2376 30.0005 49.9988C30.0005 52.7603 32.2389 54.9987 35.0004 54.9987ZM35.0004 48.3323C35.4424 48.3323 35.8663 48.5079 36.1788 48.8204C36.4914 49.133 36.667 49.5569 36.667 49.9988C36.667 50.4408 36.4914 50.8647 36.1788 51.1773C35.8663 51.4898 35.4424 51.6654 35.0004 51.6654C34.5584 51.6654 34.1345 51.4898 33.822 51.1773C33.5094 50.8647 33.3338 50.4408 33.3338 49.9988C33.3338 49.5569 33.5094 49.133 33.822 48.8204C34.1345 48.5079 34.5584 48.3323 35.0004 48.3323Z" fill="#185D82"/>
</g>
<defs>
<clipPath id="clip0_202_450">
<rect width="100" height="100" fill="white"/>
</clipPath>
</defs>
</svg>
